<svg xmlns="http://www.w3.org/2000/svg" viewBox="0 0 483.31 251.59"><defs><style>.cls-1{fill:#cccbca;}.cls-2{fill:#fff;}.cls-3{fill:#fe1e53;}.cls-4{fill:#353f49;}.cls-5{fill:#e6e5e5;}.cls-6{fill:#cecece;}.cls-7{fill:#242d3c;}</style></defs><title>ad-effect</title><g id="레이어_2" data-name="레이어 2"><g id="격리_모드" data-name="격리 모드"><path class="cls-1" d="M303.93,251.59V127.78h8.77a8.85,8.85,0,0,1,17.66,0h9.1a8.85,8.85,0,0,1,17.66,0h9.1a8.85,8.85,0,0,1,17.66,0H393a8.85,8.85,0,0,1,17.66,0h9.09a8.85,8.85,0,0,1,17.66,0h9.1a8.85,8.85,0,0,1,17.66,0h8.77V251.59Zm156-123.81a4.64,4.64,0,0,0-9.2,0Zm-26.76,0a4.63,4.63,0,0,0-9.19,0Zm-26.76,0a4.63,4.63,0,0,0-9.19,0Zm-26.76,0a4.63,4.63,0,0,0-9.19,0Zm-26.75,0a4.64,4.64,0,0,0-9.2,0Zm-26.76,0a4.64,4.64,0,0,0-9.2,0Z"/><path class="cls-1" d="M455.32,120.13a8.26,8.26,0,0,0-8.25,8.25H436.81a8.25,8.25,0,0,0-16.5,0H410.05a8.25,8.25,0,1,0-16.49,0H383.3a8.25,8.25,0,1,0-16.5,0H356.54a8.25,8.25,0,1,0-16.5,0H329.78a8.25,8.25,0,0,0-16.5,0h-8.75V251H472.32V128.38h-8.75A8.26,8.26,0,0,0,455.32,120.13Zm0,3a5.24,5.24,0,0,1,5.24,5.23H450.08A5.24,5.24,0,0,1,455.32,123.15Zm-26.76,0a5.24,5.24,0,0,1,5.24,5.23H423.33A5.24,5.24,0,0,1,428.56,123.15Zm-26.75,0a5.24,5.24,0,0,1,5.23,5.23H396.57A5.24,5.24,0,0,1,401.81,123.15Zm-26.77,0a5.24,5.24,0,0,1,5.24,5.23H369.81A5.24,5.24,0,0,1,375,123.15Zm-26.76,0a5.24,5.24,0,0,1,5.24,5.23H343.05A5.24,5.24,0,0,1,348.28,123.15Zm-26.75,0a5.23,5.23,0,0,1,5.23,5.23H316.29A5.24,5.24,0,0,1,321.53,123.15Z"/><path class="cls-1" d="M313.53,111.07a55.54,55.54,0,1,1,55.53-55.53A55.59,55.59,0,0,1,313.53,111.07Z"/><path class="cls-1" d="M368.46,55.54a54.94,54.94,0,1,0-54.93,54.93A54.93,54.93,0,0,0,368.46,55.54Z"/><path class="cls-1" d="M418.81,111.07a11,11,0,0,1-11-11V46h65.11V99.48h10.39v.6a11,11,0,0,1-11,11Z"/><path class="cls-1" d="M472.32,100.08V46.57H408.41v53.5a10.39,10.39,0,0,0,10.4,10.4h53.51a10.39,10.39,0,0,0,10.39-10.39Z"/><rect class="cls-2" x="304.53" y="152.9" width="167.79" height="98.09"/><rect class="cls-3" x="304.53" y="128.38" width="167.79" height="24.52"/><rect class="cls-3" x="327.21" y="175.59" width="52.72" height="52.72"/><path class="cls-4" d="M449.64,228.31H379.93V175.59h69.71Zm-67.93-1.78h66.15V177.36H381.71Z"/><rect class="cls-4" x="380.83" y="209.55" width="67.92" height="1.78"/><rect class="cls-4" x="380.83" y="192.56" width="67.92" height="1.78"/><rect class="cls-4" x="430.88" y="176.48" width="1.78" height="50.94"/><rect class="cls-4" x="413.9" y="176.48" width="1.78" height="50.94"/><rect class="cls-4" x="396.92" y="176.48" width="1.78" height="50.94"/><path class="cls-4" d="M321.53,136.63v-3a5.24,5.24,0,1,0-5.24-5.24h-3a8.25,8.25,0,1,1,8.25,8.25Z"/><path class="cls-4" d="M348.28,136.63v-3a5.24,5.24,0,1,0-5.23-5.24h-3a8.25,8.25,0,1,1,8.24,8.25Z"/><path class="cls-4" d="M375,136.63v-3a5.24,5.24,0,1,0-5.23-5.24h-3a8.25,8.25,0,1,1,8.24,8.25Z"/><path class="cls-4" d="M401.81,136.63v-3a5.24,5.24,0,1,0-5.24-5.24h-3a8.25,8.25,0,1,1,8.25,8.25Z"/><path class="cls-4" d="M428.56,136.63v-3a5.24,5.24,0,1,0-5.23-5.24h-3a8.25,8.25,0,1,1,8.25,8.25Z"/><path class="cls-4" d="M455.32,136.63v-3a5.24,5.24,0,1,0-5.24-5.24h-3a8.25,8.25,0,1,1,8.25,8.25Z"/><path class="cls-4" d="M368.46,55.54A54.94,54.94,0,1,1,313.52.6,54.93,54.93,0,0,1,368.46,55.54Z"/><path class="cls-2" d="M358.76,55.54a45.24,45.24,0,1,1-45.24-45.25A45.23,45.23,0,0,1,358.76,55.54Z"/><path class="cls-5" d="M313.52,100.78a45.23,45.23,0,0,0,45.24-45.24H313.52Z"/><path class="cls-4" d="M314.65,16a1.12,1.12,0,1,1-1.13-1.11A1.12,1.12,0,0,1,314.65,16Z"/><path class="cls-4" d="M294.75,20.76a1.13,1.13,0,0,1-.41,1.53,1.12,1.12,0,0,1-1.13-1.94A1.12,1.12,0,0,1,294.75,20.76Z"/><path class="cls-4" d="M279.88,34.8a1.13,1.13,0,1,1-1.53.43A1.12,1.12,0,0,1,279.88,34.8Z"/><path class="cls-4" d="M274,54.41a1.12,1.12,0,1,1-1.12,1.13A1.13,1.13,0,0,1,274,54.41Z"/><path class="cls-4" d="M278.75,74.31a1.13,1.13,0,0,1,1.54.42,1.11,1.11,0,0,1-.41,1.52,1.12,1.12,0,0,1-1.53-.4A1.14,1.14,0,0,1,278.75,74.31Z"/><path class="cls-4" d="M292.81,89.18a1.12,1.12,0,1,1,1.94,1.13,1.12,1.12,0,0,1-1.94-1.13Z"/><path class="cls-4" d="M312.41,95a1.12,1.12,0,1,1,1.12,1.12A1.11,1.11,0,0,1,312.41,95Z"/><path class="cls-4" d="M332.32,90.31a1.12,1.12,0,0,1,.41-1.54,1.12,1.12,0,0,1,1.12,1.94A1.12,1.12,0,0,1,332.32,90.31Z"/><path class="cls-4" d="M347.18,76.25a1.12,1.12,0,0,1,1.12-1.94,1.12,1.12,0,1,1-1.12,1.94Z"/><path class="cls-4" d="M353,56.65a1.12,1.12,0,1,1,1.11-1.13A1.12,1.12,0,0,1,353,56.65Z"/><path class="cls-4" d="M348.3,36.75a1.12,1.12,0,0,1-1.53-.42,1.12,1.12,0,0,1,1.94-1.12A1.13,1.13,0,0,1,348.3,36.75Z"/><path class="cls-4" d="M334.25,21.88a1.12,1.12,0,1,1-1.93-1.12,1.12,1.12,0,1,1,1.93,1.12Z"/><rect class="cls-4" x="312.18" y="55.53" width="2.71" height="21.93"/><rect class="cls-4" x="315.78" y="54.62" width="27.14" height="1.81"/><path class="cls-4" d="M318.58,55.53a5.05,5.05,0,1,1-5.06-5A5.05,5.05,0,0,1,318.58,55.53Z"/><polygon class="cls-3" points="318.72 59.96 317.96 60.73 292.37 35.14 293.13 34.37 318.72 59.96"/><path class="cls-3" d="M316.89,55.53a3.37,3.37,0,1,1-3.36-3.36A3.37,3.37,0,0,1,316.89,55.53Z"/><path class="cls-4" d="M315.21,55.53a1.68,1.68,0,1,1-1.69-1.68A1.69,1.69,0,0,1,315.21,55.53Z"/><path class="cls-2" d="M472.32,46.57v63.9H418.81a10.39,10.39,0,0,1-10.4-10.4V46.57Z"/><path class="cls-3" d="M444.06,54.13a3.7,3.7,0,1,1-3.69-3.7A3.7,3.7,0,0,1,444.06,54.13Z"/><rect class="cls-1" x="419.89" y="70.21" width="40.95" height="2.76"/><rect class="cls-1" x="419.89" y="77.13" width="40.95" height="2.77"/><rect class="cls-1" x="419.89" y="84.06" width="20.47" height="2.77"/><path class="cls-1" d="M429.2,100.07a10.39,10.39,0,0,1-10.39,10.4h53.51a10.39,10.39,0,0,0,10.39-10.39Z"/><path class="cls-6" d="M180,135.09h16.89a23.83,23.83,0,0,1,23.83,23.83V225.4a23.84,23.84,0,0,1-23.84,23.84H180a23.83,23.83,0,0,1-23.83-23.83V158.93A23.83,23.83,0,0,1,180,135.09Z"/><path class="cls-7" d="M196.85,135.7H180a23.29,23.29,0,0,0-23.23,23.23V225.4A23.3,23.3,0,0,0,180,248.64h16.89a23.3,23.3,0,0,0,23.24-23.24V158.93A23.29,23.29,0,0,0,196.85,135.7Z"/><path class="cls-6" d="M77.28,251.59a18.81,18.81,0,0,1-18.8-18.79V110.74h5.91V232.8a12.89,12.89,0,0,0,25.78,0V146.18a13.84,13.84,0,1,1,27.68,0v44.46a7.94,7.94,0,1,0,15.88,0V100.52a28.82,28.82,0,1,1,57.63,0v35.77h-5.9V100.52a22.92,22.92,0,0,0-45.83,0v90.12a13.84,13.84,0,1,1-27.68,0V146.18a7.94,7.94,0,1,0-15.88,0V232.8A18.81,18.81,0,0,1,77.28,251.59Z"/><path class="cls-7" d="M186.06,100.52v35.17h4.7V100.52a28.22,28.22,0,1,0-56.43,0v90.12a8.54,8.54,0,1,1-17.08,0V146.18a13.24,13.24,0,1,0-26.48,0V232.8a13.49,13.49,0,1,1-27,0V111.34H59.08V232.8a18.2,18.2,0,0,0,36.39,0V146.18a8.54,8.54,0,1,1,17.08,0v44.46a13.24,13.24,0,1,0,26.48,0V100.52a23.52,23.52,0,0,1,47,0Z"/><path class="cls-6" d="M61.44,111.93A42.47,42.47,0,1,1,103.9,69.47,42.51,42.51,0,0,1,61.44,111.93Z"/><path class="cls-7" d="M61.44,27.6A41.87,41.87,0,1,0,103.3,69.47,41.87,41.87,0,0,0,61.44,27.6Z"/><rect class="cls-6" x="59.47" y="9.91" width="3.94" height="8.65"/><rect class="cls-7" x="60.07" y="10.51" width="2.74" height="7.45"/><polygon class="cls-6" points="47.11 11.63 50.99 10.81 52.78 19.26 48.91 20.09 47.11 11.63"/><polygon class="cls-7" points="52.07 18.8 50.53 11.52 47.82 12.09 49.37 19.38 52.07 18.8"/><rect class="cls-6" x="36.99" y="14.69" width="3.96" height="8.65" transform="translate(-4.37 17.59) rotate(-24.12)"/><rect class="cls-7" x="37.59" y="15.29" width="2.76" height="7.45" transform="translate(-4.37 17.54) rotate(-24.06)"/><polygon class="cls-6" points="24.84 22.45 28.02 20.13 33.11 27.12 29.9 29.44 24.84 22.45"/><polygon class="cls-7" points="32.27 26.99 27.89 20.97 25.67 22.58 30.03 28.6 32.27 26.99"/><polygon class="cls-6" points="15.85 31.1 18.49 28.14 24.93 33.95 22.27 36.87 15.85 31.1"/><polygon class="cls-7" points="24.08 33.99 18.53 28.99 16.69 31.05 22.23 36.03 24.08 33.99"/><polygon class="cls-6" points="8.86 41.41 10.84 37.98 18.33 42.3 16.35 45.74 8.86 41.41"/><polygon class="cls-7" points="17.51 42.52 11.06 38.8 9.68 41.19 16.13 44.92 17.51 42.52"/><polygon class="cls-6" points="4.18 52.96 5.39 49.19 13.62 51.86 12.4 55.63 4.18 52.96"/><polygon class="cls-7" points="12.86 52.24 5.78 49.95 4.94 52.58 12.01 54.88 12.86 52.24"/><polygon class="cls-6" points="1.99 65.23 2.4 61.27 11 62.19 10.59 66.13 1.99 65.23"/><polygon class="cls-7" points="10.34 62.72 2.93 61.93 2.65 64.69 10.06 65.47 10.34 62.72"/><polygon class="cls-6" points="1.99 73.74 10.59 72.83 11 76.77 2.4 77.69 1.99 73.74"/><polygon class="cls-7" points="10.34 76.24 10.06 73.49 2.65 74.27 2.93 77.03 10.34 76.24"/><polygon class="cls-6" points="4.18 86 12.4 83.34 13.63 87.08 5.39 89.77 4.18 86"/><polygon class="cls-7" points="4.94 86.38 5.78 89.02 12.87 86.7 12.01 84.1 4.94 86.38"/><rect class="cls-6" x="9.27" y="95.13" width="8.65" height="3.96" transform="translate(-46.72 19.8) rotate(-29.99)"/><rect class="cls-7" x="9.87" y="95.73" width="7.45" height="2.76" transform="translate(-46.72 19.8) rotate(-29.99)"/><polygon class="cls-6" points="15.84 107.87 22.27 102.09 24.93 105.02 18.49 110.8 15.84 107.87"/><polygon class="cls-7" points="24.08 104.98 22.23 102.94 16.69 107.91 18.53 109.95 24.08 104.98"/><polygon class="cls-6" points="24.83 116.51 29.9 109.5 33.11 111.84 28.02 118.83 24.83 116.51"/><polygon class="cls-7" points="25.67 116.38 27.89 117.99 32.27 111.97 30.04 110.34 25.67 116.38"/><polygon class="cls-6" points="89.77 111.84 92.96 109.5 98.05 116.52 94.84 118.83 89.77 111.84"/><polygon class="cls-7" points="94.97 117.99 97.21 116.38 92.83 110.34 90.61 111.97 94.97 117.99"/><polygon class="cls-6" points="97.95 105.02 100.6 102.09 107.03 107.86 104.39 110.8 97.95 105.02"/><polygon class="cls-7" points="106.18 107.91 100.64 102.94 98.8 104.98 104.34 109.95 106.18 107.91"/><polygon class="cls-6" points="104.56 96.66 106.52 93.24 114.02 97.56 112.03 100.98 104.56 96.66"/><polygon class="cls-7" points="113.2 97.77 106.74 94.06 105.37 96.44 111.81 100.16 113.2 97.77"/><polygon class="cls-6" points="109.26 87.08 110.48 83.34 118.69 86 117.48 89.77 109.26 87.08"/><polygon class="cls-7" points="117.94 86.38 110.86 84.1 110.01 86.7 117.09 89.02 117.94 86.38"/><polygon class="cls-6" points="111.89 76.78 112.29 72.84 120.87 73.74 120.47 77.69 111.89 76.78"/><polygon class="cls-7" points="120.21 74.27 112.83 73.5 112.54 76.24 119.94 77.03 120.21 74.27"/><polygon class="cls-6" points="111.89 62.19 120.47 61.27 120.87 65.23 112.29 66.13 111.89 62.19"/><polygon class="cls-7" points="112.83 65.47 120.21 64.69 119.93 61.93 112.54 62.72 112.83 65.47"/><polygon class="cls-6" points="109.26 51.86 117.48 49.19 118.69 52.96 110.48 55.63 109.26 51.86"/><polygon class="cls-7" points="110.87 54.87 117.94 52.58 117.09 49.95 110.01 52.24 110.87 54.87"/><polygon class="cls-6" points="104.56 42.3 112.03 37.98 114.02 41.41 106.52 45.74 104.56 42.3"/><polygon class="cls-7" points="106.75 44.92 113.2 41.19 111.81 38.8 105.38 42.53 106.75 44.92"/><polygon class="cls-6" points="97.95 33.94 104.39 28.14 107.03 31.1 100.6 36.88 97.95 33.94"/><polygon class="cls-7" points="98.8 33.99 100.65 36.03 106.18 31.06 104.34 28.99 98.8 33.99"/><polygon class="cls-6" points="89.78 27.12 94.84 20.13 98.06 22.45 92.96 29.44 89.78 27.12"/><polygon class="cls-7" points="97.21 22.58 94.97 20.97 90.62 26.99 92.83 28.6 97.21 22.58"/><polygon class="cls-6" points="80.34 22.15 83.86 14.26 87.47 15.87 83.96 23.77 80.34 22.15"/><polygon class="cls-7" points="86.68 16.18 84.16 15.05 81.13 21.84 83.65 22.98 86.68 16.18"/><polygon class="cls-6" points="70.1 19.26 71.88 10.81 75.75 11.63 73.96 20.09 70.1 19.26"/><polygon class="cls-7" points="75.04 12.09 72.35 11.52 70.81 18.8 73.5 19.38 75.04 12.09"/><path class="cls-6" d="M160.59,48.28a13.78,13.78,0,1,1,13.78-13.76A13.78,13.78,0,0,1,160.59,48.28Z"/><path class="cls-7" d="M160.59,47.68a13.18,13.18,0,1,0-13.18-13.16A13.17,13.17,0,0,0,160.59,47.68Z"/><path class="cls-6" d="M26.27,169.31A8.75,8.75,0,1,1,35,160.56,8.75,8.75,0,0,1,26.27,169.31Z"/><path class="cls-7" d="M26.27,152.42a8.15,8.15,0,1,0,8.15,8.14A8.14,8.14,0,0,0,26.27,152.42Z"/><path class="cls-6" d="M190.76,65A6.26,6.26,0,1,1,197,58.7,6.27,6.27,0,0,1,190.76,65Z"/><path class="cls-7" d="M190.76,64.36a5.66,5.66,0,1,0-5.66-5.66A5.66,5.66,0,0,0,190.76,64.36Z"/><path class="cls-6" d="M170,10a4.34,4.34,0,1,1,4.34-4.34A4.35,4.35,0,0,1,170,10Z"/><path class="cls-7" d="M170,9.37a3.74,3.74,0,1,0-3.75-3.74A3.74,3.74,0,0,0,170,9.37Z"/><path class="cls-6" d="M4.35,133.93a4.35,4.35,0,1,1,4.34-4.35A4.35,4.35,0,0,1,4.35,133.93Z"/><path class="cls-7" d="M4.35,125.84a3.75,3.75,0,1,0,3.74,3.74A3.74,3.74,0,0,0,4.35,125.84Z"/><path class="cls-6" d="M99.91,12.51a6.26,6.26,0,1,1,6.25-6.25A6.26,6.26,0,0,1,99.91,12.51Z"/><path class="cls-7" d="M99.91,11.91a5.66,5.66,0,1,0-5.66-5.65A5.66,5.66,0,0,0,99.91,11.91Z"/><path class="cls-2" d="M180,135.7h16.89a23.23,23.23,0,0,1,23.23,23.23V225.4a23.23,23.23,0,0,1-23.23,23.23H180a23.24,23.24,0,0,1-23.24-23.24V158.93A23.23,23.23,0,0,1,180,135.7Z"/><path class="cls-3" d="M195,160a6.62,6.62,0,1,1-6.62-6.63A6.62,6.62,0,0,1,195,160Z"/><path class="cls-7" d="M77.28,251a18.22,18.22,0,0,1-18.2-18.19V111.34h4.71V232.8a13.49,13.49,0,1,0,27,0V146.18a13.24,13.24,0,1,1,26.48,0v44.46a8.54,8.54,0,1,0,17.08,0V100.52a28.22,28.22,0,1,1,56.43,0v35.17h-4.7V100.52a23.52,23.52,0,0,0-47,0v90.12a13.24,13.24,0,1,1-26.48,0V146.18a8.54,8.54,0,1,0-17.08,0V232.8A18.21,18.21,0,0,1,77.28,251Z"/><path class="cls-2" d="M103.3,69.47a41.87,41.87,0,1,0-41.86,41.86A41.87,41.87,0,0,0,103.3,69.47Z"/><path class="cls-3" d="M90.22,69.47A28.78,28.78,0,1,0,61.44,98.25,28.78,28.78,0,0,0,90.22,69.47Z"/><path class="cls-2" d="M63.34,83.77H59.52A8.55,8.55,0,0,1,51,75.21h5.62a2.92,2.92,0,0,0,2.93,2.94h3.82a2.94,2.94,0,1,0,0-5.87H59.52a8.56,8.56,0,0,1,0-17.11h3.82a8.59,8.59,0,0,1,6,2.49,8.47,8.47,0,0,1,2.51,6.07H66.29a2.94,2.94,0,0,0-.85-2.08,3,3,0,0,0-2.1-.86H59.52a2.89,2.89,0,0,0-2.08.86,2.94,2.94,0,0,0,2.08,5h3.82a8.56,8.56,0,1,1,0,17.11Z"/><rect class="cls-2" x="58.62" y="52.62" width="5.62" height="5.36"/><rect class="cls-2" x="58.62" y="80.96" width="5.62" height="5.36"/><rect class="cls-7" x="60.07" y="10.51" width="2.74" height="7.45"/><polygon class="cls-7" points="47.82 12.09 50.53 11.52 52.07 18.8 49.37 19.38 47.82 12.09"/><rect class="cls-7" x="37.59" y="15.29" width="2.76" height="7.45" transform="translate(-4.37 17.59) rotate(-24.12)"/><polygon class="cls-7" points="25.67 22.58 27.89 20.97 32.27 26.99 30.03 28.6 25.67 22.58"/><polygon class="cls-7" points="16.69 31.05 18.53 28.99 24.08 33.99 22.23 36.03 16.69 31.05"/><polygon class="cls-7" points="9.68 41.19 11.06 38.8 17.51 42.52 16.13 44.92 9.68 41.19"/><polygon class="cls-7" points="4.94 52.58 5.78 49.95 12.86 52.24 12.01 54.88 4.94 52.58"/><polygon class="cls-7" points="2.65 64.69 2.93 61.93 10.34 62.72 10.06 65.47 2.65 64.69"/><polygon class="cls-7" points="2.65 74.27 10.06 73.49 10.34 76.24 2.93 77.03 2.65 74.27"/><polygon class="cls-7" points="4.94 86.38 12.01 84.1 12.87 86.7 5.78 89.02 4.94 86.38"/><rect class="cls-7" x="9.87" y="95.73" width="7.45" height="2.76" transform="translate(-46.72 19.8) rotate(-29.99)"/><polygon class="cls-7" points="16.69 107.91 22.23 102.94 24.08 104.98 18.53 109.95 16.69 107.91"/><polygon class="cls-7" points="25.67 116.38 30.04 110.34 32.27 111.97 27.89 117.99 25.67 116.38"/><polygon class="cls-7" points="90.61 111.97 92.83 110.34 97.21 116.38 94.97 117.99 90.61 111.97"/><polygon class="cls-7" points="98.8 104.98 100.64 102.94 106.18 107.91 104.34 109.95 98.8 104.98"/><polygon class="cls-7" points="105.37 96.44 106.74 94.06 113.2 97.77 111.81 100.16 105.37 96.44"/><polygon class="cls-7" points="110.01 86.7 110.86 84.1 117.94 86.38 117.09 89.02 110.01 86.7"/><polygon class="cls-7" points="112.54 76.24 112.83 73.5 120.21 74.27 119.94 77.03 112.54 76.24"/><polygon class="cls-7" points="112.54 62.72 119.93 61.93 120.21 64.69 112.83 65.47 112.54 62.72"/><polygon class="cls-7" points="110.01 52.24 117.09 49.95 117.94 52.58 110.87 54.87 110.01 52.24"/><polygon class="cls-7" points="105.38 42.53 111.81 38.8 113.2 41.19 106.75 44.92 105.38 42.53"/><polygon class="cls-7" points="98.8 33.99 104.34 28.99 106.18 31.06 100.65 36.03 98.8 33.99"/><polygon class="cls-7" points="90.62 26.99 94.97 20.97 97.21 22.58 92.83 28.6 90.62 26.99"/><polygon class="cls-7" points="81.13 21.84 84.16 15.05 86.68 16.18 83.65 22.98 81.13 21.84"/><polygon class="cls-7" points="70.81 18.8 72.35 11.52 75.04 12.09 73.5 19.38 70.81 18.8"/><path class="cls-7" d="M173.77,34.52a13.18,13.18,0,1,1-13.18-13.19A13.17,13.17,0,0,1,173.77,34.52Z"/><path class="cls-2" d="M34.42,160.56a8.15,8.15,0,1,1-8.15-8.14A8.15,8.15,0,0,1,34.42,160.56Z"/><path class="cls-2" d="M196.41,58.7a5.66,5.66,0,1,1-5.65-5.65A5.66,5.66,0,0,1,196.41,58.7Z"/><path class="cls-2" d="M173.77,5.63A3.75,3.75,0,1,1,170,1.89,3.74,3.74,0,0,1,173.77,5.63Z"/><path class="cls-2" d="M8.09,129.58a3.75,3.75,0,1,1-3.74-3.74A3.75,3.75,0,0,1,8.09,129.58Z"/><path class="cls-7" d="M105.56,6.26A5.66,5.66,0,1,1,99.91.6,5.66,5.66,0,0,1,105.56,6.26Z"/></g></g></svg>