<svg xmlns="http://www.w3.org/2000/svg" viewBox="0 0 647.81 166.25"><defs><style>.cls-1,.cls-5{fill:#e0e0e0;}.cls-1,.cls-2,.cls-4,.cls-5,.cls-7{stroke:#333;}.cls-1,.cls-2,.cls-4,.cls-5,.cls-7,.cls-9{stroke-miterlimit:10;}.cls-1,.cls-2,.cls-4,.cls-9{stroke-width:2px;}.cls-2,.cls-6{fill:#fff;}.cls-3{fill:#a0a0a0;}.cls-4,.cls-7,.cls-9{fill:none;}.cls-5,.cls-7{stroke-width:1.83px;}.cls-8{fill:#333;}.cls-9{stroke:#fe1e53;stroke-linecap:round;}.cls-10{fill:#fe1e53;}</style></defs><title>ad-tester</title><g id="레이어_2" data-name="레이어 2"><g id="레이어_1-2" data-name="레이어 1"><rect class="cls-1" x="11" y="28.22" width="105.78" height="118.13"/><rect class="cls-2" x="19.25" y="10.4" width="69.29" height="27.69"/><rect class="cls-3" x="47.11" y="15.68" width="4.26" height="22.41"/><rect class="cls-3" x="56.37" y="15.68" width="3.32" height="22.41"/><rect class="cls-3" x="64.72" y="15.68" width="5.98" height="22.41"/><rect class="cls-3" x="62.62" y="15.68" width="0.93" height="22.41"/><rect class="cls-3" x="77.22" y="15.69" width="3.46" height="22.41"/><rect class="cls-3" x="52.39" y="15.68" width="1.06" height="22.41"/><rect class="cls-3" x="27.1" y="15.68" width="5.63" height="22.41"/><rect class="cls-3" x="73.97" y="15.68" width="1.45" height="22.41"/><rect class="cls-3" x="42.76" y="15.69" width="2.17" height="22.41"/><rect class="cls-3" x="34.7" y="15.69" width="3.78" height="22.41"/><rect class="cls-1" x="277.84" y="8.24" width="103.22" height="147"/><rect class="cls-2" x="267.84" y="18.24" width="103.22" height="147"/><line class="cls-4" x1="294.43" y1="85.93" x2="354.02" y2="85.93"/><line class="cls-4" x1="294.43" y1="92.08" x2="341.47" y2="92.08"/><rect class="cls-4" x="281.89" y="84.94" width="8.14" height="8.14"/><line class="cls-4" x1="294.43" y1="102.93" x2="354.02" y2="102.93"/><line class="cls-4" x1="294.43" y1="109.08" x2="341.47" y2="109.08"/><rect class="cls-4" x="281.89" y="101.93" width="8.14" height="8.14"/><rect class="cls-5" x="560.36" y="0.92" width="86.53" height="147"/><rect class="cls-6" x="550.36" y="10.92" width="86.53" height="147"/><rect class="cls-7" x="550.36" y="10.92" width="86.53" height="147"/><line class="cls-4" x1="587.44" y1="22.37" x2="599.81" y2="22.37"/><line class="cls-4" x1="550.36" y1="32.01" x2="636.89" y2="32.01"/><line class="cls-4" x1="550.36" y1="130.18" x2="636.89" y2="130.18"/><circle class="cls-4" cx="593.62" cy="144.09" r="6.02"/><rect class="cls-2" x="1" y="38.22" width="105.78" height="118.13"/><path class="cls-8" d="M83.73,51.35a3.7,3.7,0,1,1-3.7-3.7A3.69,3.69,0,0,1,83.73,51.35Z"/><path class="cls-8" d="M31.45,51.35a3.7,3.7,0,1,1-3.7-3.7A3.7,3.7,0,0,1,31.45,51.35Z"/><path class="cls-9" d="M80,52.11V95.79a26.21,26.21,0,0,1-26.14,26.14h0A26.21,26.21,0,0,1,27.75,95.79V52.11"/><rect class="cls-10" x="281.83" y="44.77" width="28.17" height="28.17"/><line class="cls-4" x1="570.36" y1="87.68" x2="616.89" y2="87.68"/><line class="cls-4" x1="570.36" y1="92.94" x2="606.68" y2="92.94"/><rect class="cls-10" x="570.36" y="101.74" width="46.53" height="13.57"/><path class="cls-8" d="M606.59,52.08h0l-2,10h0a1,1,0,0,1-1,.8h-15.7l1.4,4h10.29a1,1,0,0,1,0,2h-11a1,1,0,0,1-.94-.72h0l-6.74-19.28h-5.3a1,1,0,0,1,0-2h6a1,1,0,0,1,1,.73h0l1.15,3.28h21.9a1,1,0,0,1,1,1,1.38,1.38,0,0,1,0,.2Zm-22.16.8L587.62,62V60.88h15.19l1.6-8Zm2.19,18a2,2,0,1,1-2,2,2,2,0,0,1,2-2Zm14,0a2,2,0,1,1-2,2,2,2,0,0,1,2-2Z"/></g></g></svg>