<svg xmlns="http://www.w3.org/2000/svg" xmlns:xlink="http://www.w3.org/1999/xlink" viewBox="0 0 130 103.42"><defs><style>.cls-1{fill:none;}.cls-2{fill:#cccbca;}.cls-3{fill:#e6e5e5;}.cls-4{fill:#353f49;}.cls-5{fill:#fff;}.cls-6{fill:#ff916e;}.cls-7{fill:#f4427d;}.cls-8{fill:#fe1e53;}.cls-9{fill:#ed83a2;}.cls-10{fill:#474f59;}.cls-11{clip-path:url(#clip-path);}.cls-12{fill:#656a73;}</style><clipPath id="clip-path"><path class="cls-1" d="M115.43,54A15.74,15.74,0,1,1,99.69,38.21,15.74,15.74,0,0,1,115.43,54Z"/></clipPath></defs><title>high-efficiency</title><g id="레이어_2" data-name="레이어 2"><g id="격리_모드" data-name="격리 모드"><polygon class="cls-2" points="90.16 97.61 59.51 97.61 61.18 82.9 88.5 82.9 90.16 97.61"/><path class="cls-3" d="M96.29,99.32H53.38v-.73a1,1,0,0,1,1-1h41a1,1,0,0,1,1,1Z"/><path class="cls-3" d="M130,80.45a2.46,2.46,0,0,1-2.45,2.45H22.12a2.46,2.46,0,0,1-2.45-2.45V73.09H130Z"/><path class="cls-4" d="M130,2.45A2.44,2.44,0,0,0,127.55,0H22.12a2.44,2.44,0,0,0-2.45,2.45V73.09H130Z"/><rect class="cls-5" x="25.19" y="5.52" width="99.29" height="62.05"/><rect class="cls-6" x="32.24" y="51.5" width="7.1" height="10.25"/><rect class="cls-7" x="39.34" y="33.79" width="7.1" height="27.97"/><rect class="cls-8" x="46.44" y="43.11" width="7.1" height="18.64"/><rect class="cls-9" x="53.54" y="39.07" width="7.1" height="22.68"/><rect class="cls-7" x="60.64" y="46.37" width="7.1" height="15.38"/><rect class="cls-8" x="67.74" y="27.88" width="7.1" height="33.87"/><rect class="cls-9" x="74.84" y="39.69" width="7.1" height="22.06"/><rect class="cls-7" x="81.93" y="41.87" width="7.11" height="19.89"/><rect class="cls-8" x="89.04" y="33.79" width="7.1" height="27.97"/><rect class="cls-9" x="96.14" y="24.78" width="7.1" height="36.98"/><rect class="cls-7" x="103.24" y="20.74" width="7.1" height="41.02"/><rect class="cls-8" x="110.34" y="30.21" width="7.1" height="31.54"/><rect class="cls-8" x="67.74" y="12.78" width="3.87" height="3.87"/><rect class="cls-3" x="73.54" y="14.72" width="8.71" height="1.94"/><rect class="cls-9" x="85.33" y="12.78" width="3.87" height="3.87"/><rect class="cls-3" x="91.13" y="14.72" width="8.71" height="1.94"/><rect class="cls-7" x="102.92" y="12.78" width="3.87" height="3.87"/><rect class="cls-3" x="108.73" y="14.72" width="8.71" height="1.94"/><rect class="cls-4" x="32.24" y="9.55" width="28.4" height="7.1"/><rect class="cls-5" x="35.48" y="12.25" width="10.95" height="1.94"/><rect class="cls-3" x="32.24" y="18.59" width="28.4" height="1.93"/><rect class="cls-3" x="32.24" y="22.45" width="14.2" height="1.93"/><rect class="cls-10" x="97.32" y="73.19" width="4.73" height="5.77"/><path class="cls-4" d="M119.36,54A19.68,19.68,0,1,1,99.69,34.27,19.67,19.67,0,0,1,119.36,54Z"/><path class="cls-5" d="M115.43,54A15.74,15.74,0,1,1,99.69,38.21,15.74,15.74,0,0,1,115.43,54Z"/><rect class="cls-10" x="95.96" y="82.9" width="7.45" height="16.42"/><rect class="cls-4" x="95.34" y="78.96" width="8.69" height="3.94"/><g class="cls-11"><rect class="cls-7" x="83.95" y="62.08" width="10.49" height="41.34"/><rect class="cls-9" x="94.44" y="48.76" width="10.49" height="54.66"/><rect class="cls-8" x="104.93" y="42.79" width="10.5" height="60.63"/></g><rect class="cls-4" y="42.24" width="39.34" height="57.09" rx="2.14" ry="2.14"/><rect class="cls-10" x="16.55" y="94.8" width="6.24" height="2.14" rx="0.95" ry="0.95"/><path class="cls-10" d="M19.67,46a1,1,0,0,1,0-2,1,1,0,0,1,0,2Z"/><path class="cls-4" d="M19.67,45.44a.41.41,0,0,1-.41-.41.41.41,0,1,1,.82,0A.41.41,0,0,1,19.67,45.44Z"/><rect class="cls-5" x="2.23" y="47.82" width="34.88" height="44.6"/><rect class="cls-3" x="6.95" y="84.48" width="25.44" height="0.88"/><rect class="cls-2" x="6.95" y="80.51" width="25.44" height="3.09"/><rect class="cls-3" x="6.95" y="86.23" width="25.44" height="0.88"/><rect class="cls-3" x="6.95" y="87.98" width="12.72" height="0.88"/><path class="cls-3" d="M26.32,65.55a6.67,6.67,0,0,1-1.95,4.71l3.36,3.36a11.37,11.37,0,0,0,3.34-8.07Z"/><path class="cls-8" d="M24.37,70.26a6.65,6.65,0,1,1-7.25-10.85L15.3,55a11.4,11.4,0,1,0,12.43,18.6Z"/><path class="cls-12" d="M19.67,58.9V54.15A11.36,11.36,0,0,0,15.3,55l1.82,4.39A6.56,6.56,0,0,1,19.67,58.9Z"/><path class="cls-4" d="M19.67,58.9a6.65,6.65,0,0,1,6.65,6.65h4.75a11.39,11.39,0,0,0-11.4-11.4V58.9Z"/></g></g></svg>