<svg xmlns="http://www.w3.org/2000/svg" xmlns:xlink="http://www.w3.org/1999/xlink" viewBox="0 0 654.77 159.01"><defs><style>.cls-1,.cls-11,.cls-5{fill:none;}.cls-1,.cls-2,.cls-4,.cls-5,.cls-6{stroke:#333;}.cls-1,.cls-11,.cls-2,.cls-4,.cls-5,.cls-6,.cls-7,.cls-8{stroke-miterlimit:10;}.cls-1,.cls-11,.cls-4,.cls-6,.cls-7,.cls-8{stroke-width:2px;}.cls-2,.cls-4,.cls-7{fill:#e0e0e0;}.cls-2,.cls-5{stroke-width:1.83px;}.cls-3,.cls-6{fill:#fff;}.cls-7,.cls-8{stroke:#fff;}.cls-12,.cls-8{fill:#fe1e53;}.cls-9{fill:#555;}.cls-10{clip-path:url(#clip-path);}.cls-11{stroke:#231815;}</style><clipPath id="clip-path"><circle class="cls-1" cx="336.31" cy="81.12" r="19.93"/></clipPath></defs><title>reviewtoc-ad-cpa</title><g id="레이어_2" data-name="레이어 2"><g id="레이어_1-2" data-name="레이어 1"><rect class="cls-2" x="567.32" y="1" width="86.53" height="147"/><rect class="cls-3" x="557.32" y="11" width="86.53" height="147"/><rect class="cls-4" x="11" y="1" width="103.22" height="147"/><rect class="cls-5" x="557.32" y="11" width="86.53" height="147"/><rect class="cls-6" x="1" y="11" width="103.22" height="147"/><circle class="cls-7" cx="58.21" cy="57.46" r="7.09"/><path class="cls-7" d="M58.21,64.55a13.29,13.29,0,0,0-13.3,13.3H71.5A13.29,13.29,0,0,0,58.21,64.55Z"/><circle class="cls-7" cx="44.02" cy="57.46" r="7.09"/><path class="cls-7" d="M44,64.55a13.29,13.29,0,0,0-13.29,13.3H57.32A13.29,13.29,0,0,0,44,64.55Z"/><circle class="cls-8" cx="51.11" cy="57.46" r="7.09"/><path class="cls-8" d="M51.11,64.55a13.29,13.29,0,0,0-13.29,13.3H64.41A13.29,13.29,0,0,0,51.11,64.55Z"/><line class="cls-1" x1="27.59" y1="93.87" x2="87.18" y2="93.87"/><line class="cls-1" x1="27.59" y1="100.02" x2="74.64" y2="100.02"/><rect class="cls-1" x="15.05" y="92.88" width="8.14" height="8.14"/><line class="cls-1" x1="27.59" y1="110.87" x2="87.18" y2="110.87"/><line class="cls-1" x1="27.59" y1="117.02" x2="74.64" y2="117.02"/><rect class="cls-1" x="15.05" y="109.87" width="8.14" height="8.14"/><rect class="cls-4" x="256.06" y="11.35" width="180.51" height="131.45"/><rect class="cls-6" x="246.06" y="45.08" width="180.51" height="108.45"/><rect class="cls-6" x="246.06" y="22.08" width="180.51" height="23"/><circle class="cls-9" cx="260.73" cy="33.58" r="3.45"/><circle class="cls-9" cx="271.66" cy="33.58" r="3.45"/><circle class="cls-9" cx="282.59" cy="33.58" r="3.45"/><g class="cls-10"><circle class="cls-6" cx="336.31" cy="77.84" r="8.68"/><path class="cls-6" d="M336.31,86.51A16.28,16.28,0,0,0,320,102.79h32.55A16.28,16.28,0,0,0,336.31,86.51Z"/></g><circle class="cls-1" cx="336.31" cy="81.12" r="19.93"/><line class="cls-11" x1="309.18" y1="113.57" x2="363.45" y2="113.57"/><line class="cls-11" x1="309.18" y1="118.83" x2="351.54" y2="118.83"/><rect class="cls-12" x="309.18" y="126.81" width="54.27" height="13.57"/><line class="cls-1" x1="600.58" y1="55.38" x2="600.58" y2="58.86"/><line class="cls-1" x1="606.3" y1="55.98" x2="605.58" y2="59.38"/><line class="cls-1" x1="611.77" y1="57.76" x2="610.36" y2="60.93"/><line class="cls-1" x1="616.75" y1="60.63" x2="614.71" y2="63.44"/><line class="cls-1" x1="621.02" y1="64.48" x2="618.44" y2="66.81"/><line class="cls-1" x1="624.4" y1="69.13" x2="621.39" y2="70.87"/><line class="cls-1" x1="626.74" y1="74.38" x2="623.43" y2="75.46"/><line class="cls-1" x1="627.93" y1="80.01" x2="624.48" y2="80.37"/><line class="cls-1" x1="627.93" y1="85.75" x2="624.48" y2="85.39"/><line class="cls-1" x1="626.74" y1="91.38" x2="623.43" y2="90.3"/><line class="cls-1" x1="624.4" y1="96.63" x2="621.39" y2="94.89"/><line class="cls-1" x1="621.02" y1="101.28" x2="618.44" y2="98.95"/><line class="cls-1" x1="616.75" y1="105.12" x2="614.71" y2="102.31"/><line class="cls-1" x1="611.77" y1="108" x2="610.36" y2="104.83"/><line class="cls-1" x1="606.3" y1="109.77" x2="605.58" y2="106.38"/><line class="cls-1" x1="600.58" y1="110.38" x2="600.58" y2="106.9"/><line class="cls-1" x1="594.87" y1="109.77" x2="595.59" y2="106.38"/><line class="cls-1" x1="589.4" y1="108" x2="590.81" y2="104.83"/><line class="cls-1" x1="584.42" y1="105.12" x2="586.46" y2="102.31"/><line class="cls-1" x1="580.15" y1="101.28" x2="582.73" y2="98.95"/><line class="cls-1" x1="576.77" y1="96.63" x2="579.78" y2="94.89"/><line class="cls-1" x1="574.43" y1="91.38" x2="577.74" y2="90.3"/><line class="cls-1" x1="573.24" y1="85.75" x2="576.69" y2="85.39"/><line class="cls-1" x1="573.24" y1="80.01" x2="576.69" y2="80.37"/><line class="cls-1" x1="574.43" y1="74.38" x2="577.74" y2="75.46"/><line class="cls-1" x1="576.77" y1="69.13" x2="579.78" y2="70.87"/><line class="cls-1" x1="580.15" y1="64.48" x2="582.73" y2="66.81"/><line class="cls-1" x1="584.42" y1="60.63" x2="586.46" y2="63.44"/><line class="cls-1" x1="589.4" y1="57.76" x2="590.81" y2="60.93"/><line class="cls-1" x1="594.87" y1="55.98" x2="595.59" y2="59.38"/><path class="cls-6" d="M620.11,82.88a19.53,19.53,0,1,0-19.52,19.52A19.52,19.52,0,0,0,620.11,82.88Z"/><path class="cls-12" d="M614,82.88A13.43,13.43,0,1,0,600.59,96.3,13.42,13.42,0,0,0,614,82.88Z"/><path class="cls-3" d="M601.47,89.55h-1.78a4,4,0,0,1-4-4h2.62a1.4,1.4,0,0,0,.4,1,1.35,1.35,0,0,0,1,.4h1.78a1.36,1.36,0,0,0,1-.41,1.31,1.31,0,0,0,.4-1,1.37,1.37,0,0,0-1.38-1.37h-1.78a4,4,0,0,1,0-8h1.78a4,4,0,0,1,4,4h-2.62a1.4,1.4,0,0,0-.4-1,1.42,1.42,0,0,0-1-.4h-1.78a1.35,1.35,0,0,0-1,.4,1.38,1.38,0,0,0,0,1.94,1.35,1.35,0,0,0,1,.4h1.78a4,4,0,1,1,0,8Z"/><rect class="cls-3" x="599.27" y="75.02" width="2.62" height="2.5"/><rect class="cls-3" x="599.27" y="88.24" width="2.62" height="2.5"/><line class="cls-1" x1="594.4" y1="22.46" x2="606.77" y2="22.46"/><line class="cls-1" x1="557.32" y1="32.1" x2="643.85" y2="32.1"/><line class="cls-1" x1="557.32" y1="130.26" x2="643.85" y2="130.26"/><circle class="cls-1" cx="600.58" cy="144.18" r="6.02"/></g></g></svg>