<svg xmlns="http://www.w3.org/2000/svg" viewBox="0 0 25 29"><defs><style>.cls-1{fill:none;stroke:#231f20;stroke-linecap:round;stroke-linejoin:round;}</style></defs><title>support-un-active</title><g id="레이어_2" data-name="레이어 2"><g id="Layer_1" data-name="Layer 1"><path class="cls-1" d="M1.5,12.5v-1a11,11,0,0,1,11-11h0a11,11,0,0,1,11,11v1"/><path class="cls-1" d="M5.5,21.5h-2a3,3,0,0,1-3-3v-3a3,3,0,0,1,3-3h2Z"/><path class="cls-1" d="M21.5,21.5h-2v-9h2a3,3,0,0,1,3,3v3A3,3,0,0,1,21.5,21.5Z"/><path id="_패스_" data-name="&lt;패스&gt;" class="cls-1" d="M21.5,21.5v1a5,5,0,0,1-5,5h0"/><path class="cls-1" d="M15,28.5H12A1.54,1.54,0,0,1,10.5,27h0A1.54,1.54,0,0,1,12,25.5h3A1.54,1.54,0,0,1,16.5,27h0A1.54,1.54,0,0,1,15,28.5Z"/></g></g></svg>