<svg xmlns="http://www.w3.org/2000/svg" viewBox="0 0 36.26 48.88"><defs><style>.cls-1{fill:none;}.cls-2{fill:#231f20;}</style></defs><title>guide-un-active</title><g id="레이어_2" data-name="레이어 2"><g id="Layer_1" data-name="Layer 1"><path class="cls-1" d="M28.07,12.37a1.7,1.7,0,0,1-1.35.71H9.54a1.7,1.7,0,0,1-1.35-.71,2.44,2.44,0,0,1-.36-2.14L8,9.58H3.75A2.25,2.25,0,0,0,1.5,11.83v33.3a2.25,2.25,0,0,0,2.25,2.25H32.51a2.25,2.25,0,0,0,2.25-2.25V11.83a2.25,2.25,0,0,0-2.25-2.25H28.25l.19.65A2.48,2.48,0,0,1,28.07,12.37Zm.31,23.46h-21a.75.75,0,0,1,0-1.5h21a.75.75,0,0,1,0,1.5Zm0-6.6h-21a.75.75,0,1,1,0-1.5h21a.75.75,0,0,1,0,1.5Zm.75-7.35a.75.75,0,0,1-.75.75h-21a.75.75,0,1,1,0-1.5h21A.76.76,0,0,1,29.13,21.88Z"/><path class="cls-1" d="M18.13,1.5a3.07,3.07,0,0,0-3,2.31h5.92A3.07,3.07,0,0,0,18.13,1.5Z"/><path class="cls-2" d="M7.38,21.13a.75.75,0,1,0,0,1.5h21a.75.75,0,0,0,0-1.5Z"/><path class="cls-2" d="M28.38,27.73h-21a.75.75,0,1,0,0,1.5h21a.75.75,0,0,0,0-1.5Z"/><path class="cls-2" d="M28.38,34.33h-21a.75.75,0,0,0,0,1.5h21a.75.75,0,0,0,0-1.5Z"/><path class="cls-2" d="M32.51,8.08H27.82L27,5.27A1.87,1.87,0,0,0,25.3,3.81H22.62a4.55,4.55,0,0,0-9,0H11A1.87,1.87,0,0,0,9.24,5.27l-.8,2.81H3.75A3.76,3.76,0,0,0,0,11.83v33.3a3.75,3.75,0,0,0,3.75,3.75H32.51a3.75,3.75,0,0,0,3.75-3.75V11.83A3.76,3.76,0,0,0,32.51,8.08ZM18.13,1.5a3.07,3.07,0,0,1,3,2.31H15.17A3.07,3.07,0,0,1,18.13,1.5ZM9.27,10.64l.3-1.06L10,8.08l.69-2.4c.07-.26.21-.37.27-.37H25.3c.06,0,.2.11.28.37l.68,2.4.43,1.5L27,10.64a1,1,0,0,1-.12.83s-.1.11-.16.11H9.54c-.06,0-.13-.08-.15-.11A1,1,0,0,1,9.27,10.64ZM34.76,45.13a2.25,2.25,0,0,1-2.25,2.25H3.75A2.25,2.25,0,0,1,1.5,45.13V11.83A2.25,2.25,0,0,1,3.75,9.58H8l-.18.65a2.44,2.44,0,0,0,.36,2.14,1.7,1.7,0,0,0,1.35.71H26.72a1.7,1.7,0,0,0,1.35-.71,2.48,2.48,0,0,0,.37-2.14l-.19-.65h4.26a2.25,2.25,0,0,1,2.25,2.25Z"/></g></g></svg>