<?xml version="1.0" encoding="utf-8"?>
<!-- Generator: Adobe Illustrator 21.1.0, SVG Export Plug-In . SVG Version: 6.00 Build 0)  -->
<svg version="1.1" id="레이어_1" xmlns="http://www.w3.org/2000/svg" xmlns:xlink="http://www.w3.org/1999/xlink" x="0px"
	 y="0px" viewBox="0 0 512 512" style="enable-background:new 0 0 512 512;" xml:space="preserve">
<style type="text/css">
	.st0{fill:#A0A0A0;}
	.st1{fill:none;stroke:#A0A0A0;stroke-width:20;stroke-miterlimit:10;}
</style>
<g>
	<path class="st0" d="M436,84.5H76c-16.5,0-30,13.5-30,30v200c0,16.5,13.5,30,30,30h235.4l83.1,83.1v-83.1H436c16.5,0,30-13.5,30-30
		v-200C466,97.9,452.5,84.5,436,84.5z M374.5,324.5v10v10v34.8l-34.8-34.8l-10-10l-10-10h-28.3H76c-5.5,0-10-4.5-10-10v-200
		c0-5.5,4.5-10,10-10h360c5.5,0,10,4.5,10,10v200c0,5.5-4.5,10-10,10h-41.5H374.5z"/>
	<g>
		<line class="st1" x1="127.3" y1="186.5" x2="384.7" y2="186.5"/>
		<line class="st1" x1="127.3" y1="242.5" x2="384.7" y2="242.5"/>
	</g>
</g>
</svg>
