<svg xmlns="http://www.w3.org/2000/svg" viewBox="0 0 246.81 118.76"><defs><style>.cls-1{fill:#3e2b2f;}.cls-2{fill:#ffea00;}.cls-3{fill:#3e2a2e;}.cls-4{fill:#a97f86;opacity:0.5;}</style></defs><title>자산 1</title><g id="레이어_2" data-name="레이어 2"><g id="Layer_1" data-name="Layer 1"><path class="cls-1" d="M13,35.8V0h3.28V19L34.75,0H39L24.44,14.85,40.67,35.8H36.59L22.25,17l-6,6.14V35.8Z"/><path class="cls-1" d="M61,32.05a13.91,13.91,0,0,1-4.42,3.3,12.13,12.13,0,0,1-5.13,1.1,9.09,9.09,0,0,1-6.23-2A6.89,6.89,0,0,1,42.86,29a7,7,0,0,1,1.06-3.86A7.17,7.17,0,0,1,47,22.51a24.83,24.83,0,0,1,7.7-1.45l1.58-.13.85-.17q3.7-.76,3.69-3.19,0-3-1.5-4.31T54.4,12a8.49,8.49,0,0,0-5.32,1.45,5.5,5.5,0,0,0-2,4.29l-2.94,0A7.74,7.74,0,0,1,47,11.56,11.35,11.35,0,0,1,54.4,9.31q4.64,0,7,2a7.13,7.13,0,0,1,2.4,5.83V31.23a3.2,3.2,0,0,0,.39,2,2.08,2.08,0,0,0,1.46.39h.58l.51,0V35.8a11.11,11.11,0,0,1-1.12.18,9.79,9.79,0,0,1-1,.06,3.84,3.84,0,0,1-2.77-.9A3.58,3.58,0,0,1,61,32.47Zm-.19-9.79a15.36,15.36,0,0,1-3.05.71q-1.86.27-6,.49a9.81,9.81,0,0,0-4.33,2.14,4.43,4.43,0,0,0-1.46,3.33,4.35,4.35,0,0,0,1.57,3.52,6.42,6.42,0,0,0,4.26,1.31,9.63,9.63,0,0,0,6.55-2.12,7.29,7.29,0,0,0,2.44-5.8Z"/><path class="cls-1" d="M70.83,35.8V0h3V22.51L86.72,10h3.82l-9.75,9.45L91.73,35.8H88.31l-9.6-14.39L73.82,26.1v9.7Z"/><path class="cls-1" d="M111.73,32.05a14,14,0,0,1-4.42,3.3,12.13,12.13,0,0,1-5.13,1.1,9.1,9.1,0,0,1-6.24-2A6.89,6.89,0,0,1,93.62,29a6.94,6.94,0,0,1,1.06-3.86,7.16,7.16,0,0,1,3.07-2.61,24.8,24.8,0,0,1,7.7-1.45l1.58-.13.85-.17q3.69-.76,3.69-3.19,0-3-1.5-4.31T105.17,12a8.47,8.47,0,0,0-5.32,1.45,5.49,5.49,0,0,0-2,4.29l-2.94,0a7.74,7.74,0,0,1,2.85-6.11,11.34,11.34,0,0,1,7.41-2.25q4.64,0,7,2a7.14,7.14,0,0,1,2.41,5.83V31.23a3.2,3.2,0,0,0,.39,2,2.07,2.07,0,0,0,1.46.39H117l.51,0V35.8a11,11,0,0,1-1.12.18,9.74,9.74,0,0,1-1,.06,3.84,3.84,0,0,1-2.77-.9,3.58,3.58,0,0,1-.92-2.68Zm-.19-9.79a15.44,15.44,0,0,1-3,.71q-1.86.27-6,.49a9.8,9.8,0,0,0-4.33,2.14,4.43,4.43,0,0,0-1.46,3.33,4.37,4.37,0,0,0,1.57,3.52,6.45,6.45,0,0,0,4.27,1.31,9.62,9.62,0,0,0,6.55-2.12,7.29,7.29,0,0,0,2.44-5.8Z"/><path class="cls-1" d="M120.3,22.92q0-6.49,3.1-10t8.73-3.56q5.67,0,8.79,3.56t3.12,10q0,6.44-3.11,10t-8.8,3.55q-5.64,0-8.73-3.54T120.3,22.92Zm3.08,0q0,5.2,2.3,8.07a8.76,8.76,0,0,0,12.94,0q2.29-2.85,2.29-8.09t-2.29-8.1a8.74,8.74,0,0,0-12.94,0Q123.39,17.69,123.39,22.92Z"/><path class="cls-1" d="M151.8,35.8V6.39H141.19V0h28.53V6.39H159.17V35.8Z"/><path class="cls-1" d="M182.35,32.52a8.78,8.78,0,0,1-3.5,3.15,11.16,11.16,0,0,1-5,1.08,7.78,7.78,0,0,1-5.92-2.19,8.69,8.69,0,0,1-2.08-6.22,7.49,7.49,0,0,1,2.08-5.71q2.08-2,6.86-2.7,1.1-.17,2.87-.39,4.5-.58,4.5-2.6a2.6,2.6,0,0,0-1-2.3,6,6,0,0,0-3.33-.69,5.45,5.45,0,0,0-3.29.85,2.87,2.87,0,0,0-1.14,2.43v.39h-6.61v-.48a7.77,7.77,0,0,1,2.87-6.38q2.87-2.32,7.92-2.32,5.54,0,8.49,1.92a6.2,6.2,0,0,1,3,5.54v15a6.79,6.79,0,0,0,.34,2.47,2.38,2.38,0,0,0,1.14,1.23V35.8h-7.36a6,6,0,0,1-.56-1.51A8.3,8.3,0,0,1,182.35,32.52Zm-.12-9.72a18.84,18.84,0,0,1-4,1.29l-2.32.51a5.66,5.66,0,0,0-2.61,1.34,3.12,3.12,0,0,0-.74,2.21,3,3,0,0,0,.95,2.32,3.64,3.64,0,0,0,2.55.86,6.15,6.15,0,0,0,4.51-1.61,5.91,5.91,0,0,0,1.64-4.41Z"/><path class="cls-1" d="M195.42,35.8V0h7.07V35.8Z"/><path class="cls-1" d="M209,35.8V0h6.87V18.79l8.41-9.4h8.51l-9.21,9.79,9.77,16.63h-8.48l-6.32-11.25-2.67,2.89V35.8Z"/><path class="cls-1" d="M12.67,36V0H16V19.08L34.54,0h4.24L24.18,14.92,40.49,36H36.38L22,17.11l-6,6.17V36Z"/><path class="cls-1" d="M60.88,32.21a14,14,0,0,1-4.45,3.32,12.19,12.19,0,0,1-5.15,1.1A9.13,9.13,0,0,1,45,34.58a6.92,6.92,0,0,1-2.33-5.47,7,7,0,0,1,1.06-3.87,7.21,7.21,0,0,1,3.09-2.62,25,25,0,0,1,7.74-1.46L56.17,21l.85-.17q3.71-.76,3.71-3.2,0-3-1.5-4.33T54.29,12a8.51,8.51,0,0,0-5.35,1.45,5.53,5.53,0,0,0-2,4.31l-3,0a7.77,7.77,0,0,1,2.86-6.14,11.41,11.41,0,0,1,7.45-2.26q4.67,0,7.08,2a7.17,7.17,0,0,1,2.42,5.86V31.38a3.21,3.21,0,0,0,.39,2,2.09,2.09,0,0,0,1.47.39h.59l.51,0V36a10.62,10.62,0,0,1-1.12.18,9.53,9.53,0,0,1-1,.06,3.87,3.87,0,0,1-2.79-.9,3.6,3.6,0,0,1-.93-2.69Zm-.2-9.84a15.37,15.37,0,0,1-3.07.71q-1.87.27-6,.49a9.84,9.84,0,0,0-4.35,2.15,4.44,4.44,0,0,0-1.46,3.34,4.38,4.38,0,0,0,1.58,3.54,6.47,6.47,0,0,0,4.28,1.32,9.68,9.68,0,0,0,6.58-2.13A7.33,7.33,0,0,0,60.69,26Z"/><path class="cls-1" d="M70.8,36V0h3V22.62l13-12.6h3.84l-9.8,9.5L91.8,36H88.37L78.71,21.52,73.8,26.23V36Z"/><path class="cls-1" d="M111.9,32.21a14,14,0,0,1-4.44,3.32,12.2,12.2,0,0,1-5.15,1.1A9.15,9.15,0,0,1,96,34.58a6.93,6.93,0,0,1-2.33-5.47,7,7,0,0,1,1.06-3.87,7.2,7.2,0,0,1,3.09-2.62,25,25,0,0,1,7.74-1.46l1.59-.13.86-.17q3.71-.76,3.71-3.2,0-3-1.5-4.33T105.31,12A8.51,8.51,0,0,0,100,13.47a5.52,5.52,0,0,0-2,4.31l-3,0a7.79,7.79,0,0,1,2.86-6.14,11.4,11.4,0,0,1,7.45-2.26q4.66,0,7.08,2a7.17,7.17,0,0,1,2.42,5.86V31.38a3.23,3.23,0,0,0,.39,2,2.08,2.08,0,0,0,1.47.39h.58l.51,0V36a10.44,10.44,0,0,1-1.12.18,9.48,9.48,0,0,1-1,.06,3.85,3.85,0,0,1-2.78-.9,3.6,3.6,0,0,1-.93-2.69Zm-.19-9.84a15.46,15.46,0,0,1-3.06.71q-1.87.27-6,.49a9.84,9.84,0,0,0-4.35,2.15,4.45,4.45,0,0,0-1.46,3.34,4.39,4.39,0,0,0,1.57,3.54,6.48,6.48,0,0,0,4.29,1.32,9.68,9.68,0,0,0,6.58-2.13A7.33,7.33,0,0,0,111.7,26Z"/><path class="cls-1" d="M120.52,23q0-6.52,3.12-10.1t8.78-3.57q5.69,0,8.83,3.57T144.38,23q0,6.47-3.13,10t-8.84,3.57q-5.67,0-8.78-3.55T120.52,23Zm3.1,0q0,5.22,2.31,8.11a8.8,8.8,0,0,0,13,0q2.3-2.86,2.3-8.13t-2.3-8.14a8.79,8.79,0,0,0-13,0Q123.62,17.78,123.62,23Z"/><path class="cls-1" d="M152.18,36V6.42H141.51V0h28.67V6.42h-10.6V36Z"/><path class="cls-1" d="M182.88,32.68a8.81,8.81,0,0,1-3.52,3.16,11.21,11.21,0,0,1-5.05,1.09,7.82,7.82,0,0,1-5.95-2.2,8.74,8.74,0,0,1-2.09-6.26,7.53,7.53,0,0,1,2.09-5.74q2.09-2,6.9-2.71c.73-.11,1.7-.24,2.88-.39q4.52-.59,4.52-2.62a2.61,2.61,0,0,0-1-2.31,6.07,6.07,0,0,0-3.35-.7,5.48,5.48,0,0,0-3.3.85,2.88,2.88,0,0,0-1.14,2.44v.39h-6.64v-.49a7.81,7.81,0,0,1,2.88-6.41q2.88-2.33,8-2.33,5.57,0,8.53,1.93a6.23,6.23,0,0,1,3,5.57V31.07a6.8,6.8,0,0,0,.34,2.48,2.39,2.39,0,0,0,1.15,1.23V36h-7.4a6.06,6.06,0,0,1-.56-1.51A8.51,8.51,0,0,1,182.88,32.68Zm-.12-9.77a19,19,0,0,1-4,1.29l-2.33.51a5.68,5.68,0,0,0-2.62,1.34,3.14,3.14,0,0,0-.75,2.22,3,3,0,0,0,1,2.33,3.65,3.65,0,0,0,2.56.87,6.18,6.18,0,0,0,4.53-1.62,5.94,5.94,0,0,0,1.65-4.43Z"/><path class="cls-1" d="M196,36V0h7.11V36Z"/><path class="cls-1" d="M209.67,36V0h6.91V18.88L225,9.43h8.55l-9.26,9.84L234.14,36h-8.52l-6.35-11.31-2.69,2.91V36Z"/><path class="cls-2" d="M215.57,49.24H31.24A31.24,31.24,0,0,0,0,80.48v.79a31.23,31.23,0,0,0,16.37,27.48,12.41,12.41,0,0,1-2.12,4.45c-1.32,1.78-3,3.85-3.76,4.67s-.07,1.19,2.23.6a52.64,52.64,0,0,0,10.71-4.53c1.62-.93,2.56-1.47,3.22-1.8a31.67,31.67,0,0,0,4.58.37H215.57a31.24,31.24,0,0,0,31.24-31.24v-.79A31.24,31.24,0,0,0,215.57,49.24Z"/><polygon class="cls-2" points="125.61 81.83 125.61 81.83 125.61 81.83 125.61 81.83"/><path class="cls-2" d="M124.38,85l0,0,0-.08Z"/><path class="cls-3" d="M31.74,49.33H31.2A31.17,31.17,0,0,0,0,80.5v.79a31.17,31.17,0,0,0,16.33,27.42,12.39,12.39,0,0,1-2.12,4.44c-1.32,1.77-3,3.84-3.75,4.65s-.07,1.19,2.22.6a52.39,52.39,0,0,0,10.69-4.52c1.61-.93,2.55-1.46,3.22-1.8a31,31,0,0,0,4.58.38h.54A31.17,31.17,0,0,0,62.91,81.29V80.5A31.17,31.17,0,0,0,31.74,49.33ZM15.07,80h6.68V86.6H15.07a4,4,0,0,1-2.68-.9,3,3,0,0,1-1-2.44,2.91,2.91,0,0,1,1.06-2.38A4,4,0,0,1,15.07,80Zm31.36,3c-2,2.46-5,3.7-8.83,3.7H33.08V80h2.48a5.7,5.7,0,0,0,4.25-1.49,5.22,5.22,0,0,0,1.4-3.83,4.92,4.92,0,0,0-1.57-3.52A5.28,5.28,0,0,0,36,69.87H31.16V94.58a4.71,4.71,0,0,1-1,3.07,3.38,3.38,0,0,1-2.78,1.21,3.5,3.5,0,0,1-2.82-1.22,4.56,4.56,0,0,1-1.05-3.07V67.93a4.32,4.32,0,0,1,4.72-4.72h8.33c3.93,0,6.92,1,8.9,2.91a11.73,11.73,0,0,1,1.94,2.46,12.33,12.33,0,0,1,1.29,3,11.56,11.56,0,0,1,.44,3.11A12.49,12.49,0,0,1,46.43,82.93Z"/><path class="cls-1" d="M97.17,81.67H78.49c-1.83,0-3.56,0-5.39.14v-3.7c1.83.14,3.56.14,5.39.14H97.17c1.83,0,3.56,0,5.39-.14v3.7C100.72,81.67,99,81.67,97.17,81.67ZM79.73,69.37h-.11a27.19,27.19,0,0,0-3.38.14V65.88a27.21,27.21,0,0,0,3.38.14H96a27.22,27.22,0,0,0,3.38-.14v3.63a29.5,29.5,0,0,0-3.52-.14l-.11,3.7h.85a27.21,27.21,0,0,0,3.38-.14v3.66a29.55,29.55,0,0,0-3.52-.14H79.06a27.21,27.21,0,0,0-3.38.14V72.93a27.19,27.19,0,0,0,3.38.14h.74ZM76.66,96.78V88.64H93.85V86.92H79.73a29.78,29.78,0,0,0-3.06.14V83.43a23.08,23.08,0,0,0,3.06.14H99.14A16.58,16.58,0,0,0,99,86.21v5.46H81.74v1.76H96.43a32,32,0,0,0,3.21-.11v3.59a24.46,24.46,0,0,0-3.21-.14Zm7.47-27.41.07,3.7h7.33l.11-3.7Z"/><path class="cls-1" d="M116.85,70.85h-6.24a23.93,23.93,0,0,0-3.17.14V66.84a23.93,23.93,0,0,0,3.17.14h10.75a21.87,21.87,0,0,0-.14,3V80.33h-9.37v5.81h3.28a68.5,68.5,0,0,0,9.48-.88V89a87.77,87.77,0,0,1-11.2,1h-6V76.53h9.41Zm10.64,9.23h-2a16.21,16.21,0,0,0-2.61.14V75.71a16.86,16.86,0,0,0,2.68.14h2V70.11c0-1.59,0-3.14-.18-4.72H132c-.14,1.59-.14,3.14-.14,4.72V92.17c0,1.59,0,3.13.14,4.72h-4.69c.14-1.59.18-3.13.18-4.72Z"/><path class="cls-1" d="M160.56,93.36H141.89c-1.83,0-3.56,0-5.39.14V89.35c1.83.14,3.56.14,5.39.14h18.67c1.83,0,3.56,0,5.39-.14V93.5C164.12,93.36,162.4,93.36,160.56,93.36Zm-6.94-24.13c0,5.67,5.5,10.39,11.27,11.77A41.93,41.93,0,0,0,162,84.24c-3.87-1.27-8.53-4.33-10.85-8.28-2.15,4-6.48,6.9-10.78,8.31-.71-.85-1.76-2.08-3-3.35,6.23-1.69,11.34-5.88,11.34-11.7a27.12,27.12,0,0,0-.14-2.92h5.14A20.35,20.35,0,0,0,153.62,69.23Z"/><path class="cls-1" d="M184.69,73.92h-3.35c.42,3.56,4.4,6.52,8,7.36-1,1.13-1.9,2.25-2.68,3.35a16.26,16.26,0,0,1-7.5-5.43c-1.13,2.22-4.72,5-7.82,6.13a33,33,0,0,0-3.1-3.24c4.47-1.44,8.17-4.23,8.35-8.17h-3.24a18.44,18.44,0,0,0-2.78.14V70.22a18.42,18.42,0,0,0,2.78.14h11.38a18.46,18.46,0,0,0,2.79-.14v3.84A18.48,18.48,0,0,0,184.69,73.92Zm-3.06-5.32h-5.29a17.82,17.82,0,0,0-2.36.07V65.14c.85.07,1.55.07,2.36.07h5.29c.81,0,1.52,0,2.36-.07v3.52C183.14,68.6,182.44,68.6,181.62,68.6Zm-7.36,27.76V89.42a17.08,17.08,0,0,0-.14-2.68h4.69a16.22,16.22,0,0,0-.14,2.61v3.17h12.72c1.83,0,3.45,0,5.28-.14V96.5c-1.83-.14-3.45-.14-5.28-.14ZM196,84.73a30.12,30.12,0,0,0,.14,3.56h-4.62a30.16,30.16,0,0,0,.18-3.56V68.95a30.18,30.18,0,0,0-.18-3.56h4.62a30.14,30.14,0,0,0-.14,3.56Z"/><path class="cls-1" d="M219.84,79.84a32.12,32.12,0,0,0,1.76-9.65H206.95a37.81,37.81,0,0,0-4,.14V66.17a37.81,37.81,0,0,0,4,.14h19.34a54,54,0,0,1-1.9,13.53c1.69,0,3.28,0,5-.14v4.09c-1.83-.14-3.56-.14-5.39-.14h-7.29V93.5a27.78,27.78,0,0,0,.14,3.42H212a27.79,27.79,0,0,0,.14-3.42V83.64h-6.87c-1.83,0-3.56,0-5.39.14V79.7c1.83.14,3.56.14,5.39.14Z"/><path class="cls-4" d="M18.51,107A28.79,28.79,0,0,1,3.41,81.69V81a28.8,28.8,0,0,1,28.8-28.8h.5a28.93,28.93,0,0,1,5.55.54,28.74,28.74,0,0,0-7.45-1h-.5a28.8,28.8,0,0,0-28.8,28.8v.73a28.8,28.8,0,0,0,15.09,25.34Z"/></g></g></svg>