<svg xmlns="http://www.w3.org/2000/svg" viewBox="0 0 25 25"><defs><style>.cls-1{fill:#333;}</style></defs><title>money</title><g id="레이어_2" data-name="레이어 2"><g id="svg2"><path id="path5603-8-2-9-8" class="cls-1" d="M14.77,0A1.9,1.9,0,0,0,13,2a2.11,2.11,0,0,0,.61,1.5,2.15,2.15,0,0,0,0,3A2.11,2.11,0,0,0,13,8a2.14,2.14,0,0,0,.62,1.51,1.86,1.86,0,0,0-.37.5,7.43,7.43,0,0,0-4.84,2H1.77A1.9,1.9,0,0,0,0,14a2.11,2.11,0,0,0,.61,1.5,2.15,2.15,0,0,0,0,3,2.15,2.15,0,0,0,0,3A2.11,2.11,0,0,0,0,23a1.9,1.9,0,0,0,1.77,2H13l.13,0,.31,0,.43,0,.15,0h9.17A1.9,1.9,0,0,0,25,23a2.11,2.11,0,0,0-.61-1.5,2.15,2.15,0,0,0,0-3,2.15,2.15,0,0,0,0-3,2.15,2.15,0,0,0,0-3,2.15,2.15,0,0,0,0-3,2.15,2.15,0,0,0,0-3,2.15,2.15,0,0,0,0-3A2.11,2.11,0,0,0,25,2a1.9,1.9,0,0,0-1.77-2Zm0,1h8.46A.9.9,0,0,1,24,2a.9.9,0,0,1-.77,1H14.77A.9.9,0,0,1,14,2,.9.9,0,0,1,14.77,1Zm0,3h8.46A.9.9,0,0,1,24,5a.9.9,0,0,1-.77,1H14.77A.9.9,0,0,1,14,5,.9.9,0,0,1,14.77,4Zm0,3h8.46A.9.9,0,0,1,24,8a.9.9,0,0,1-.77,1H14.77A.9.9,0,0,1,14,8,.9.9,0,0,1,14.77,7Zm0,3h8.46A.9.9,0,0,1,24,11a.9.9,0,0,1-.77,1H18.55a7.41,7.41,0,0,0-4.06-1.92A.57.57,0,0,1,14.77,10Zm-1.29,1A6.5,6.5,0,1,1,7,17.5,6.51,6.51,0,0,1,13.48,11ZM1.77,13H7.51a7.14,7.14,0,0,0-1.07,2H1.77A.9.9,0,0,1,1,14,.9.9,0,0,1,1.77,13Zm17.68,0h3.78A.9.9,0,0,1,24,14a.9.9,0,0,1-.77,1h-2.7A7.72,7.72,0,0,0,19.45,13ZM1.77,16H6.15A7.41,7.41,0,0,0,6,17.5,4.19,4.19,0,0,0,6,18H1.77A.9.9,0,0,1,1,17,.9.9,0,0,1,1.77,16Zm19,0h2.43A.9.9,0,0,1,24,17a.9.9,0,0,1-.77,1H21a4.19,4.19,0,0,0,0-.5.48.48,0,0,0,0-.2h0A7,7,0,0,0,20.8,16Zm-19,3H6.15a7.24,7.24,0,0,0,.72,2H1.77A.9.9,0,0,1,1,20,.9.9,0,0,1,1.77,19Zm19.08,0h2.38A.9.9,0,0,1,24,20a.9.9,0,0,1-.77,1h-3.1A7.57,7.57,0,0,0,20.85,19ZM7.48,22a7.43,7.43,0,0,0,2.28,2h-8a1,1,0,0,1,0-2H7.29A.41.41,0,0,0,7.48,22Zm12,0h3.75a1,1,0,0,1,0,2h-6A7.51,7.51,0,0,0,19.48,22Z"/><path class="cls-1" d="M10,17.24h.76L10.18,15h1l.45,2.29h.9L13,15h1l.49,2.29h.89L15.85,15h1l-.55,2.29H17V18h-.89l-.66,2.82H14.44L13.82,18h-.64l-.62,2.83h-1L10.85,18H10Zm2.4.75h-.63L12,19.16l.08.57.08-.57Zm.93-.74h.41l-.14-.76L13.5,16l-.06.5Zm2,.74h-.64l.25,1.17.09.57.08-.57Z"/></g></g></svg>