<?xml version="1.0" encoding="utf-8"?>
<!-- Generator: Adobe Illustrator 21.1.0, SVG Export Plug-In . SVG Version: 6.00 Build 0)  -->
<svg version="1.1" id="레이어_1" xmlns="http://www.w3.org/2000/svg" xmlns:xlink="http://www.w3.org/1999/xlink" x="0px"
	 y="0px" viewBox="0 0 512 512" style="enable-background:new 0 0 512 512;" xml:space="preserve">
<style type="text/css">
	.st0{fill:none;stroke:#C0C0C0;stroke-width:40;stroke-miterlimit:10;}
	.st1{fill:#C0C0C0;}
</style>
<path class="st0" d="M436,357.7H76c-11,0-20-9-20-20v-228c0-11,9-20,20-20h360c11,0,20,9,20,20v228C456,348.7,447,357.7,436,357.7z"
	/>
<path class="st1" d="M416,357.7H96c-22,0-40-18-40-40V278h400v39.7C456,339.7,438,357.7,416,357.7z"/>
<path class="st1" d="M256,377.3l-100,47c-11.1,2.8-8.4,14.6,3.4,14.6h193.1c11.8,0,14.5-11.9,3.4-14.6L256,377.3"/>
</svg>
