<svg id="레이어_1" data-name="레이어 1" xmlns="http://www.w3.org/2000/svg" viewBox="0 0 513 513"><defs><style>.cls-1,.cls-2{fill:#a0a0a0;}.cls-1{stroke:#a0a0a0;stroke-miterlimit:10;}</style></defs><title>profile</title><path class="cls-1" d="M256,130a79,79,0,1,1-79,79,79.09,79.09,0,0,1,79-79m0-20a99,99,0,1,0,99,99,99,99,0,0,0-99-99Z" transform="translate(0.5 0.5)"/><path class="cls-2" d="M437.37,74.63A256.5,256.5,0,0,0-.5,256,255.78,255.78,0,0,0,82.09,444.52h0l.25.23.54.5h0c5,4.55,10.16,8.94,15.44,13.06h0l.28.22.55.43h0a256.49,256.49,0,0,0,314.25-.42l.28-.22-.12-.34-.06-.17q8-6.23,15.42-13.06l.2.51.54-.5a256.48,256.48,0,0,0,7.71-370.13ZM403,440l-1.64,1.31-1.6,1.23-1.71,1.32L396.52,445l-1.79,1.33-1.53,1.1-1.86,1.33-1.52,1.05-1.91,1.32-1.53,1-1.94,1.29-1.57,1-1.94,1.24-1.6,1-2,1.2-1.63,1-2,1.16-1.69,1-1.94,1.1-1.76,1-1.9,1-1.87,1-1.82.95-2.06,1-1.67.83-2.26,1.08-1.51.72-2.5,1.14-1.31.6q-1.91.85-3.84,1.66a236.33,236.33,0,0,1-183.32,0q-1.93-.82-3.84-1.66l-1.11-.51-2.7-1.23-1.32-.63-2.45-1.17-1.45-.72-2.29-1.14-1.51-.79L145.49,464l-1.55-.84L141.82,462l-1.54-.87L138.19,460l-1.56-.92-2-1.2-1.59-1-2-1.2-1.64-1-1.87-1.2-1.65-1.09-1.83-1.21L122.42,450l-1.77-1.23L119,447.54l-1.7-1.22-1.7-1.26-1.64-1.23-1.72-1.33-1.58-1.22-1.75-1.4-1.37-1.1.67-1.33c.26-.51.51-1,.77-1.52s.53-1,.8-1.51.52-1,.79-1.48.56-1,.84-1.51.53-1,.81-1.44.59-1,.88-1.51.55-.95.83-1.42.61-1,.92-1.5l.85-1.38c.32-.51.64-1,1-1.51l.86-1.34c.33-.5.66-1,1-1.48l.9-1.33c.34-.49.68-1,1-1.47l.92-1.31,1.06-1.45.94-1.28,1.1-1.44,1-1.26,1.11-1.39,1-1.27,1.11-1.33,1.07-1.29,1.15-1.33,1.08-1.24,1.24-1.37,1.05-1.16,1.34-1.43,1-1.06q1.19-1.23,2.4-2.45A165.5,165.5,0,0,1,373,395q1.21,1.21,2.4,2.45l.71.75c.55.58,1.1,1.15,1.64,1.74l.84.93c.48.53,1,1.06,1.45,1.6l.92,1.06c.44.5.88,1,1.31,1.51l.92,1.11c.42.5.84,1,1.26,1.51l.89,1.12c.41.51.82,1,1.23,1.54l.9,1.17c.39.51.78,1,1.16,1.52l.88,1.2c.38.51.76,1,1.13,1.54l.82,1.17c.38.54.76,1.07,1.13,1.61l.79,1.18c.37.54.74,1.09,1.1,1.64l.77,1.2c.36.55.71,1.1,1.06,1.66l.74,1.2c.35.56.69,1.12,1,1.68l.71,1.21c.34.57.67,1.14,1,1.71l.68,1.21c.33.58.66,1.16,1,1.75l.64,1.21c.32.6.64,1.19,1,1.79l.6,1.19c.28.54.55,1.08.82,1.63Zm70-92.31a234.71,234.71,0,0,1-50.48,74.86c-.55.55-1.11,1.09-1.67,1.64l-.2.2c-.48-.9-1-1.78-1.48-2.67s-1-1.8-1.49-2.69-1.18-2-1.77-3-1-1.71-1.53-2.55c-.62-1-1.27-2-1.91-3-.52-.8-1-1.62-1.56-2.41-.67-1-1.37-2-2.06-3-.53-.76-1-1.52-1.58-2.27-.72-1-1.47-2-2.21-3-.53-.71-1.05-1.43-1.59-2.13-.77-1-1.56-2-2.35-2.94-.54-.67-1.06-1.34-1.61-2-.82-1-1.66-1.94-2.49-2.91-.54-.63-1.07-1.27-1.62-1.88-.86-1-1.75-1.92-2.63-2.87-.54-.59-1.08-1.19-1.63-1.77-.91-1-1.85-1.89-2.78-2.83-.54-.55-1.08-1.11-1.63-1.65-1-.94-1.93-1.85-2.9-2.77-.55-.52-1.09-1-1.64-1.56-1-.92-2-1.81-3-2.7-.55-.48-1.09-1-1.64-1.45-1-.9-2.11-1.77-3.18-2.64-.55-.45-1.08-.91-1.63-1.35-1.08-.87-2.19-1.71-3.29-2.55-.55-.42-1.09-.86-1.65-1.27-1.12-.84-2.26-1.65-3.39-2.46-.56-.4-1.1-.81-1.66-1.2-1.15-.8-2.32-1.57-3.49-2.35-.56-.38-1.12-.76-1.69-1.13-1.18-.77-2.38-1.5-3.58-2.24-.57-.35-1.13-.72-1.7-1.06-1.21-.73-2.44-1.43-3.67-2.13-.58-.33-1.15-.67-1.73-1-1.24-.69-2.49-1.35-3.74-2-.59-.31-1.17-.63-1.76-.94-1.26-.65-2.53-1.26-3.8-1.88-.6-.29-1.19-.6-1.8-.88-1.27-.6-2.56-1.17-3.85-1.74-.62-.27-1.23-.57-1.85-.83-1.29-.56-2.6-1.08-3.91-1.61-.63-.25-1.25-.52-1.88-.77-1.31-.51-2.63-1-3.95-1.48-.64-.23-1.28-.49-1.92-.71-1.32-.47-2.65-.9-4-1.34-.66-.22-1.31-.45-2-.66-1.32-.42-2.65-.8-4-1.19-.69-.2-1.37-.42-2.06-.61-1.31-.37-2.64-.7-4-1-.71-.18-1.42-.38-2.13-.56-1.31-.32-2.63-.6-3.95-.89-.74-.16-1.47-.34-2.22-.5-1.31-.27-2.64-.51-4-.75-.76-.14-1.51-.3-2.27-.43-1.32-.23-2.66-.42-4-.62-.77-.12-1.53-.25-2.3-.36-1.34-.18-2.69-.33-4-.49-.77-.09-1.53-.2-2.3-.28-1.38-.14-2.76-.24-4.15-.36-.75-.06-1.49-.14-2.24-.19-1.5-.1-3-.17-4.51-.23-.64,0-1.28-.08-1.92-.1q-3.23-.11-6.47-.11t-6.47.11c-.64,0-1.27.07-1.91.1-1.51.07-3,.13-4.52.23-.74.05-1.47.13-2.2.19-1.4.11-2.79.22-4.18.36-.76.08-1.51.18-2.27.27-1.36.16-2.72.3-4.07.49-.76.1-1.51.24-2.27.35-1.34.2-2.68.39-4,.62-.75.13-1.49.29-2.24.43-1.33.25-2.66.48-4,.76-.73.15-1.45.33-2.18.49-1.33.29-2.66.58-4,.9-.7.17-1.39.37-2.09.55-1.34.34-2.68.68-4,1-.67.19-1.33.4-2,.6-1.35.39-2.69.78-4,1.2-.65.2-1.28.43-1.93.64-1.34.44-2.69.88-4,1.35-.64.23-1.27.48-1.9.71-1.33.49-2.65,1-4,1.48-.62.24-1.23.51-1.85.76-1.31.53-2.63,1.06-3.93,1.62-.61.26-1.21.55-1.81.82-1.3.58-2.6,1.15-3.88,1.76-.6.28-1.18.58-1.77.87-1.28.62-2.56,1.24-3.83,1.89-.59.3-1.17.63-1.76.94-1.25.66-2.51,1.32-3.74,2-.58.32-1.15.67-1.73,1-1.23.7-2.46,1.4-3.67,2.13-.57.35-1.13.71-1.7,1.06-1.2.74-2.4,1.48-3.58,2.24-.57.37-1.13.76-1.7,1.14-1.16.77-2.33,1.54-3.48,2.34-.57.4-1.13.81-1.69,1.22-1.13.81-2.26,1.61-3.37,2.44-.56.42-1.11.86-1.67,1.29-1.09.84-2.19,1.67-3.27,2.54-.56.45-1.1.92-1.66,1.37-1.06.87-2.12,1.73-3.15,2.62-.56.48-1.1,1-1.65,1.47-1,.89-2,1.78-3,2.69-.56.52-1.1,1.05-1.66,1.57-1,.91-1.94,1.82-2.89,2.75-.56.55-1.1,1.12-1.65,1.68-.92.93-1.85,1.85-2.75,2.8-.56.59-1.1,1.2-1.66,1.8-.87.94-1.75,1.88-2.6,2.84-.56.63-1.1,1.28-1.66,1.93-.82,1-1.65,1.9-2.45,2.87-.56.67-1.09,1.36-1.64,2-.78,1-1.56,1.92-2.32,2.9-.55.71-1.08,1.44-1.62,2.16-.73,1-1.47,1.94-2.19,2.93-.54.75-1.06,1.52-1.59,2.28-.69,1-1.38,2-2,3-.54.8-1,1.62-1.57,2.43-.64,1-1.28,2-1.9,3-.53.85-1,1.71-1.54,2.57s-1.19,2-1.76,3-1,1.8-1.5,2.69-1,1.76-1.48,2.66h0l-.18-.17c-.57-.55-1.14-1.1-1.7-1.66A235.42,235.42,0,1,1,473,347.66Z" transform="translate(0.5 0.5)"/></svg>