<svg id="레이어_1" data-name="레이어 1" xmlns="http://www.w3.org/2000/svg" viewBox="0 0 172.27 295.31"><defs><style>.cls-1{fill:#a0a0a0;}</style></defs><title>question2</title><path class="cls-1" d="M241.35,303.07q0-18.75,7-32.42,5.46-9.76,20.7-25l14.06-14.06q16.79-16,22.66-24.61a49.08,49.08,0,0,0,9.38-28.91q0-24.61-15.23-38.28-15.23-13.28-41.41-13.28-30.86,0-46.09,16t-15.23,49.22H169.87Q171,148,193.7,125.34t65.63-22.66q37.88,0,60.55,19.92,22.27,19.92,22.27,53.13a76.58,76.58,0,0,1-7,33.2q-7,14.46-21.87,28.52l-10.55,9.38Q282,265.19,275.34,274.55a53.84,53.84,0,0,0-10.16,31.64v21.48H241.35Zm-1.17,59h26.17V398H240.18Z" transform="translate(-169.87 -102.68)"/></svg>