<?xml version="1.0" encoding="utf-8"?>
<!-- Generator: Adobe Illustrator 21.1.0, SVG Export Plug-In . SVG Version: 6.00 Build 0)  -->
<svg version="1.1" id="레이어_1" xmlns="http://www.w3.org/2000/svg" xmlns:xlink="http://www.w3.org/1999/xlink" x="0px"
	 y="0px" viewBox="0 0 512 512" style="enable-background:new 0 0 512 512;" xml:space="preserve">
<style type="text/css">
	.st0{fill:#818181;}
</style>
<path class="st0" d="M519.1,504.9L361.3,347.1c33-36.4,53.2-84.7,53.2-137.6c0-113-92-205-205-205c-113,0-205,92-205,205
	c0,113,92,205,205,205c52.9,0,101.2-20.2,137.6-53.2l157.8,157.8c2,2,4.5,2.9,7.1,2.9s5.1-1,7.1-2.9
	C523,515.2,523,508.8,519.1,504.9z M24.5,209.5c0-102,83-185,185-185c102,0,185,83,185,185c0,102-83,185-185,185
	C107.5,394.5,24.5,311.5,24.5,209.5z"/>
</svg>
