<?xml version="1.0" encoding="utf-8"?>
<!-- Generator: Adobe Illustrator 21.1.0, SVG Export Plug-In . SVG Version: 6.00 Build 0)  -->
<svg version="1.1" id="레이어_1" xmlns="http://www.w3.org/2000/svg" xmlns:xlink="http://www.w3.org/1999/xlink" x="0px"
	 y="0px" viewBox="0 0 512 512" style="enable-background:new 0 0 512 512;" xml:space="preserve">
<style type="text/css">
	.st0{fill:#C1C0C0;}
</style>
<path class="st0" d="M388,49c8.8,0,16,7.2,16,16v393.3c0,8.8-7.2,16-16,16H124c-8.8,0-16-7.2-16-16V65c0-8.8,7.2-16,16-16H388
	 M388,29H124c-19.8,0-36,16.1-36,36v393.3c0,19.8,16.1,36,36,36h264c19.8,0,36-16.1,36-36V65C424,45.1,407.9,29,388,29L388,29z"/>
<path class="st0" d="M348.2,409H163.8c-3.3,0-6-2.7-6-6V107.1c0-3.3,2.7-6,6-6h184.4c3.3,0,6,2.7,6,6V403
	C354.2,406.3,351.5,409,348.2,409z"/>
<g>
	<path class="st0" d="M276,446.7h-40c-3.3,0-6-2.7-6-6s2.7-6,6-6h40c3.3,0,6,2.7,6,6S279.3,446.7,276,446.7z"/>
</g>
</svg>
