<svg xmlns="http://www.w3.org/2000/svg" viewBox="0 0 321.17 308.38"><defs><style>.cls-1{fill:#a0a0a0;}</style></defs><title>자산 1</title><g id="레이어_2" data-name="레이어 2"><g id="레이어_1-2" data-name="레이어 1"><path class="cls-1" d="M241.31,308.38a30,30,0,0,1-14-3.48l-62.08-32.64a10,10,0,0,0-9.31,0L93.85,304.9a30,30,0,0,1-43.53-31.62l11.86-69.13a10,10,0,0,0-2.88-8.85l-50.22-49A30,30,0,0,1,25.71,95.17L95.11,85.09a10,10,0,0,0,7.53-5.47l31-62.89a30,30,0,0,1,53.8,0l31,62.89a10,10,0,0,0,7.53,5.47l69.41,10.08a30,30,0,0,1,16.63,51.17l-50.22,49a10,10,0,0,0-2.88,8.85l11.86,69.12a30.06,30.06,0,0,1-29.54,35.1Zm-80.72-57.26a30,30,0,0,1,14,3.45l62.08,32.64a10,10,0,0,0,14.51-10.54l-11.86-69.13A30,30,0,0,1,247.91,181l50.22-49A10,10,0,0,0,292.59,115l-69.41-10.08a30,30,0,0,1-22.59-16.41l-31-62.89a10,10,0,0,0-17.93,0l-31,62.89A30,30,0,0,1,98,104.88L28.58,115A10,10,0,0,0,23,132l50.22,49a30,30,0,0,1,8.63,26.55L70,276.66A10,10,0,0,0,84.55,287.2l62.08-32.64A30,30,0,0,1,160.59,251.11Z"/></g></g></svg>