<svg xmlns="http://www.w3.org/2000/svg" viewBox="0 0 228.86 77.96"><defs><style>.cls-1{fill:#ff1d25;}.cls-2{fill:#fff;}</style></defs><title>자산 1</title><g id="레이어_2" data-name="레이어 2"><g id="레이어_1-2" data-name="레이어 1"><path d="M127.4,19.18v.75H120v-.75Zm-.76,4.53H121v-2h4.45v-.53H121v-.73h5.46v2H122V23h4.66Zm-5.62-5V15.88h1v.82h3.46v-.82h1v2.83Zm4.41-.72v-.58H122V18Z"/><path d="M131.62,21v1h3.15v.79h-7.42V22h3.23V21Zm-3.2-.36V18h4.35V17h-4.4v-.76h5.4v2.49h-4.38v1.07h4.68v.8Z"/><path d="M139.06,16.45a5.79,5.79,0,0,1-3.44,5.66l-.61-.67c2-1.12,3-2.32,3-4.21h-2.7v-.79Zm2.35,7.22h-1v-4.1h-1.5v-.79h1.5V15.89h1Z"/><path d="M149.62,19v.75H142.2V19Zm-.76,4.67H143.2V21.64h4.45v-.57H143.2v-.74h5.46v2h-4.45v.61h4.66Zm-5.62-5.21V16h5.35v.73h-4.38v1h4.46v.73Z"/><path d="M149.77,21.29c1.91,0,3.88-.06,5.29-.2v.76a42.57,42.57,0,0,1-5.29.22Zm2.55-1.21a2,2,0,0,1-2.26-2,2.08,2.08,0,0,1,2.21-1.94h0a2,2,0,1,1,.15,3.94h-.11Zm1.18-1.94a1.1,1.1,0,0,0-1-1.15h-.17a1.15,1.15,0,0,0-1.23,1.07s0,.06,0,.08a1.14,1.14,0,0,0,1.1,1.17h.15a1.1,1.1,0,0,0,1.2-1.18Zm2.89,5.54h-1V15.9h1Z"/><path d="M162.54,21.91a4.36,4.36,0,0,1-1.47-1.58,4.32,4.32,0,0,1-1.73,1.79l-.57-.6a3.26,3.26,0,0,0,1.81-2.78v-.8h-1.51v-.77h1.51V15.94h1v1.22h1.52v.77h-1.52v.8a2.82,2.82,0,0,0,1.5,2.53Zm2,1.51h-.94V19.57h-1.23v-.8h1.23V15.93h.94Zm1.49.25h-1V15.89h1Z"/><path d="M171.33,17.36h-4.86v-.72h1.94V15.8h1v.84h1.93Zm-2.41,3.09c-1.31,0-2-.65-2-1.43s.72-1.39,2-1.39,2,.6,2,1.39S170.23,20.45,168.92,20.45Zm-1-1.44c0,.38.35.69,1,.69s1-.29,1-.69-.32-.64-1-.64-1,.27-1,.64Zm5.32,4.61H168v-2.8h5.2Zm-1-.75V21.56H169v1.31Zm1-2.47h-1V18.81H171.1V18h1.14V15.9h1Z"/><path d="M180.19,16.45a5.84,5.84,0,0,1-3.49,5.66l-.61-.67c2-1.12,3-2.32,3.07-4.21H176.4v-.79Zm2.2,7.22h-1V15.89h1Z"/><path d="M187.52,21.81A4.87,4.87,0,0,1,185.6,20a5.1,5.1,0,0,1-2,2l-.58-.65a3.49,3.49,0,0,0,2.11-2.91V17.24h-1.66v-.79h4.3v.79h-1.64v1.23a3,3,0,0,0,1.9,2.66Zm3.27-2.49h-1.33v4.32h-1V15.86h1v2.62h1.31Z"/><path d="M195.39,19.83a36.7,36.7,0,0,1-4.47.18v-3.7h3.7v.77h-2.74v2.13a34,34,0,0,0,3.51-.13Zm1.69,3.71h-5.31V20.85h1v1.91h4.36Zm-.26-7.65v1.82H198v.8h-1.22v2.94h-1V15.89Z"/><path d="M204.27,16.45c0,3.28-1.35,4.61-3.39,5.66l-.6-.67a5,5,0,0,0,2.6-2.36c-.87.08-1.76.11-2.51.12v-.76c.73,0,1.84-.06,2.77-.14a6.43,6.43,0,0,0,.12-1.07h-2.72v-.79Zm2.36,7.22h-1V19.49h-1.36v-.8h1.39v-2.8h1Z"/><path d="M214.84,21H213v2.6h-1V21h-1.7v2.54h-1V21h-1.88v-.78h7.42Zm-1-1.68h-5.37V16.2h5.37Zm-1-.76V17h-3.45v1.66Z"/><path d="M219.91,21.36a34.42,34.42,0,0,1-4.37.19V16.38h1v4.37a23.65,23.65,0,0,0,3.4-.18Zm1.51,2.32h-1V15.9h1Z"/><path d="M227.36,21.53a28.33,28.33,0,0,1-4.44.22V16.38h3.7v.76H223.9v1.5h2.67v.76H223.9V21a22.69,22.69,0,0,0,3.46-.19Zm1.48,2.14h-1V15.89h1Z"/><path d="M60.66,12.89A34,34,0,1,0,16.18,63h0C37.87,78.58,55.91,78,55.91,78c-11.42-9.4-2.14-16.31-2.14-16.31h0a34,34,0,0,0,5.09-4.49,33.77,33.77,0,0,1,1.81-44.21Z"/><path class="cls-1" d="M138.7,40.78v25.4H128.1V40.78H120V30.55h26.79V40.78Z"/><path class="cls-1" d="M168.93,29.64a17.58,17.58,0,0,1,13,5.51,18.72,18.72,0,1,1-32,13.18,17.89,17.89,0,0,1,5.52-13.26A18.53,18.53,0,0,1,168.93,29.64Zm-.31,10.49a7.41,7.41,0,0,0-5.56,2.4,8.44,8.44,0,0,0,0,11.59,7.65,7.65,0,0,0,10.81.31l.31-.31a8.53,8.53,0,0,0,0-11.62,7.42,7.42,0,0,0-5.56-2.34Z"/><path class="cls-1" d="M217.77,48.77l11.09.29q-1.1,8.61-6,13.31t-12.7,4.7a18.14,18.14,0,0,1-13.33-5.34,17.94,17.94,0,0,1-5.36-13.25,18.13,18.13,0,0,1,5.47-13.39,18.38,18.38,0,0,1,13.5-5.45A17.78,17.78,0,0,1,223.6,35a20.85,20.85,0,0,1,5.17,10.28L217.42,46q-1.91-5.84-7.23-5.85a7.35,7.35,0,0,0-5.6,2.35,8.38,8.38,0,0,0-2.21,6,8,8,0,0,0,2.17,5.78,7.93,7.93,0,0,0,10.84.27A9.15,9.15,0,0,0,217.77,48.77Z"/><path class="cls-2" d="M32.66,17.7l1.51,16.81L20,35.79l.59,6.5L34.77,41l.44,4.92L15.09,47.75,13.57,30.84l14.68-1.32-.48-5.88L12.53,25,12,19.53Zm11.26-3.4-6.09.55L41.35,54l6.09-.55Z"/><path class="cls-1" d="M111.45,23.55A29.35,29.35,0,1,0,70.83,62.38h0s9,5-.36,14.2c0,0,15.54-1.08,32.71-16.48h0a29.35,29.35,0,0,0,8.27-36.54Z"/><path class="cls-2" d="M102.2,42.41,101,47.71l-7.06-1.63L91.17,58,86,56.76l2.77-11.87-8-1.84L78,54.93l-5.44-1.29,2.75-11.88-6.56-1.5L70,35ZM97.33,21.78l5.52,1.28L99.27,38.54,74.39,32.79,78,17.31l5.56,1.28-.84,3.63L96.5,25.41ZM81,29.53l13.78,3.2.65-2.82L81.61,26.72Z"/></g></g></svg>