<?xml version="1.0" encoding="utf-8"?>
<!-- Generator: Adobe Illustrator 21.1.0, SVG Export Plug-In . SVG Version: 6.00 Build 0)  -->
<svg version="1.1" id="레이어_1" xmlns="http://www.w3.org/2000/svg" xmlns:xlink="http://www.w3.org/1999/xlink" x="0px"
	 y="0px" viewBox="0 0 1920 110" style="enable-background:new 0 0 1920 110;" xml:space="preserve">
<style type="text/css">
	.st0{fill:#E21A58;}
	.st1{fill:#FFFFFF;}
	.st2{fill:none;stroke:#FFFFFF;stroke-miterlimit:10;}
	.st3{fill:none;stroke:#FFFFFF;stroke-width:2;stroke-miterlimit:10;}
	.st4{opacity:0.75;fill:none;stroke:#FFFFFF;stroke-miterlimit:10;enable-background:new    ;}
	.st5{fill:#000333;}
	.st6{opacity:0.2;fill:#FFFFFF;enable-background:new    ;}
	.st7{fill:#FFCF57;}
	.st8{opacity:0.5;fill:#E35242;enable-background:new    ;}
	.st9{clip-path:url(#SVGID_2_);fill:#FFCF57;}
	.st10{clip-path:url(#SVGID_2_);fill:#FFFFFF;}
	.st11{fill:#FFFF31;}
</style>
<rect class="st0" width="1920" height="110"/>
<title>대지 1</title>
<rect x="360" y="0" class="st0" width="1200" height="110"/>
<path class="st1" d="M555.4,45.7v10.8h-6.9v5.3h7.1v2.6h-9.9V53.6h6.9v-5.2h-6.9v-2.7H555.4z M561.5,64.5h-2.8V45.6h2.8V64.5z"/>
<path class="st1" d="M581.8,57.7v2.6h-4.2v4.1h-2.8v-4.1h-4v4.1H568v-4.1h-4.2v-2.6H581.8z M564.9,56V45.5h3.1v3.1h9.4v-3.1h3.1V56
	H564.9z M568,53.3h9.4v-2H568L568,53.3z"/>
<path class="st1" d="M593.5,54.3v1.1h7.1v2.3h-17.2v-2.3h7.1v-1.1h-5.8v-8.6h14.5v2.2h-11.7v0.9h11.7v2.2h-11.7v1h11.7v2.3
	L593.5,54.3z M599.5,61l-0.8,3.5h-3l0.8-3.5h-12.1v-2.2h15L599.5,61z"/>
<path class="st1" d="M615,50.4v3.1h7v-7.9h3v3.5h2v2.3h-2v4.7h-16v-2.5h3.2v-3.1H615z M621.8,57.4c0.5,0,1,0.1,1.4,0.3
	c0.4,0.2,0.8,0.4,1.1,0.8c1.4,1.4,1.4,3.6,0,5c-0.3,0.3-0.7,0.6-1.1,0.8c-0.4,0.2-0.9,0.3-1.4,0.3h-8.2c-0.5,0-1-0.1-1.4-0.3
	c-0.9-0.4-1.5-1-1.9-1.9c-0.4-0.9-0.4-1.9,0-2.8c0.4-0.9,1-1.5,1.9-1.9c0.4-0.2,0.9-0.3,1.4-0.3L621.8,57.4z M620,51.9h-2.8v-3.7
	h-7.1v-2.5h9.9V51.9z M613.6,60.1c-0.5,0-0.9,0.4-0.9,0.8c0,0,0,0,0,0l0,0c0,0.2,0.1,0.5,0.3,0.7c0.1,0.2,0.4,0.3,0.6,0.3h8.2
	c0.2,0,0.5-0.1,0.6-0.3c0.2-0.2,0.3-0.4,0.3-0.7c0-0.2-0.1-0.5-0.3-0.6c-0.2-0.2-0.4-0.3-0.6-0.3L613.6,60.1z"/>
<path class="st1" d="M633.3,61.9v-8h2.9v8h3.8l1-13.4h-11.6v-2.7H644v2.7l-1,13.4h2.4v2.6h-17.2v-2.6H633.3z"/>
<path class="st1" d="M664.6,56.7v2.5h-7.2v5.3h-2.8v-5.3h-7.2v-2.5H664.6z M656.4,48.4h-8.3v-2.7h15.7V48l-5.3,2.5l5.2,2v2.9
	l-8.3-3.4l-7.3,3.4v-3L656.4,48.4z"/>
<path class="st1" d="M673.5,48.4h-6.9v-2.7h10v2.7l-2.3,16h-3.1L673.5,48.4z M682.6,52.6h2v2.7h-2v9.2h-3V45.6h3V52.6z"/>
<path class="st1" d="M697.2,62v-5.3h-4.5v-11h10.6v2.8h-7.8v5.6h7.8v2.6H700V62h5.8V45.6h2.9v18.9h-16.5V62H697.2z"/>
<path class="st1" d="M721.3,45.6v10.9H715v5.1h6.5v2.7h-9.4V53.5h6.3v-5.1h-6.2v-2.8H721.3z M725.1,49.9v-4.3h2.8v18.9h-2.8v-5.8
	h-2.6V56h2.6v-3.4h-2.6v-2.7H725.1z"/>
<path class="st1" d="M734.8,61.9h9.5v-7.6h-3.4v1.9h-9.7V45.7h9.7v1.9h3.4v-2h2.9v18.9h-15.2v-6.1h2.8V61.9z M738,48.4h-4.1v5h4.1
	V48.4z M740.8,51.9h3.4v-1.8h-3.4V51.9z"/>
<path class="st1" d="M749.6,50.6c0-0.6,0-1.1,0.1-1.7c0.1-0.5,0.2-1.1,0.5-1.5c0.2-0.5,0.6-0.9,1-1.2c0.5-0.3,1.1-0.5,1.6-0.5h3.5
	c0.5,0,1,0.1,1.5,0.3c0.4,0.2,0.7,0.5,1,0.9c0.3,0.4,0.5,0.8,0.6,1.2c0.2,0.4,0.2,0.9,0.3,1.3c0.1,0.4,0.1,0.9,0,1.3
	c-0.1,0.4-0.2,0.7-0.3,1.1l-2.8,5.1v2.2h-2.9v-2.5l2.7-4.6c0.2-0.3,0.3-0.7,0.3-1c0.1-0.4,0.1-0.8,0-1.2c0-0.4-0.2-0.7-0.4-1
	c-0.2-0.3-0.5-0.4-0.8-0.4h-1.6c-0.2,0-0.5,0-0.7,0.1c-0.2,0.1-0.3,0.2-0.4,0.4c-0.1,0.2-0.2,0.4-0.2,0.6c0,0.3-0.1,0.5-0.1,0.8
	L749.6,50.6z M756.6,63.9h-2.9V61h2.9V63.9z"/>
<line class="st2" x1="983" y1="79" x2="996" y2="92"/>
<line class="st2" x1="843" y1="22" x2="856" y2="35"/>
<line class="st3" x1="673" y1="93" x2="690" y2="110"/>
<line class="st2" x1="644" y1="18" x2="661" y2="35"/>
<line class="st4" x1="602" y1="79" x2="619" y2="96"/>
<line class="st3" x1="523" y1="18" x2="540" y2="35"/>
<path class="st1" d="M1308,55.6v2.7h-7.3V61h-2.8v-2.8h-3.6v4.2h12.7v2.8h-15.7v-7h-1.4v-2.7H1308z M1306.6,45.5v8.2h-15.3v-8.2
	L1306.6,45.5z M1294,50.9h9.7v-2.6h-9.7V50.9z"/>
<path class="st1" d="M1324.5,62.5V45.4h3v19.9h-17.4v-2.8H1324.5z M1316.6,45.5c0.6,0,1.2,0.1,1.8,0.4c0.5,0.2,1,0.6,1.5,1
	c0.9,0.9,1.4,2,1.3,3.3V53c0,1.9-1.1,3.5-2.8,4.3c-0.6,0.2-1.2,0.4-1.8,0.4h-1.5c-0.6,0-1.2-0.1-1.8-0.4c-1.7-0.7-2.8-2.4-2.8-4.3
	v-2.9c0-1.2,0.5-2.4,1.3-3.3c0.4-0.4,0.9-0.8,1.5-1c0.6-0.2,1.2-0.4,1.8-0.4L1316.6,45.5z M1315.1,48.4c-0.9,0-1.7,0.8-1.7,1.7V53
	c0,0.9,0.8,1.7,1.7,1.7h1.5c0.9,0,1.7-0.8,1.7-1.7v-2.9c0-0.9-0.8-1.7-1.7-1.7L1315.1,48.4z"/>
<path class="st1" d="M1337.8,46.7h4.1v2.6h-11v-2.6h4v-2h2.9V46.7z M1337.1,50.6c0.6,0,1.1,0.1,1.6,0.3c0.5,0.2,1,0.5,1.3,0.9
	c0.4,0.4,0.7,0.8,0.9,1.3c0.2,0.5,0.3,1,0.3,1.6v6.5c0,0.5-0.1,1.1-0.3,1.6c-0.2,0.5-0.5,0.9-0.9,1.3c-0.4,0.4-0.8,0.7-1.3,0.9
	c-0.5,0.2-1.1,0.3-1.6,0.3h-1.6c-0.6,0-1.1-0.1-1.7-0.3c-0.5-0.2-1-0.5-1.3-0.9c-0.4-0.4-0.7-0.8-0.9-1.3c-0.2-0.5-0.3-1-0.3-1.6
	v-6.5c0-0.5,0.1-1.1,0.3-1.6c0.2-0.5,0.5-0.9,0.9-1.3c0.4-0.4,0.8-0.7,1.3-0.9c0.5-0.2,1.1-0.3,1.7-0.3H1337.1z M1336.4,62.4
	c0.5,0,1-0.2,1.4-0.5c0.4-0.3,0.6-0.8,0.6-1.3v-5.3c0-0.5-0.2-1-0.6-1.4c-0.4-0.3-0.9-0.5-1.4-0.5h-0.2c-0.5,0-1,0.2-1.4,0.5
	c-0.4,0.3-0.6,0.8-0.6,1.4v5.3c0,0.5,0.2,1,0.6,1.3c0.4,0.3,0.9,0.5,1.4,0.5H1336.4z M1347.1,53.4h2.1v2.9h-2.1v9.1h-3V45.4h3V53.4z
	"/>
<path class="st1" d="M1358,48.3h-7.6v-2.8h10.9v2.8l-2.4,16.9h-3.2L1358,48.3z M1367.8,65.3h-3.2V45.4h3.2V65.3z"/>
<path class="st1" d="M1395.3,39.2h28.9c8.7,0,15.8,7.1,15.8,15.8v0c0,8.7-7.1,15.8-15.8,15.8h-28.9c-8.7,0-15.8-7.1-15.8-15.8v0
	C1379.5,46.3,1386.6,39.2,1395.3,39.2z"/>
<path class="st5" d="M1405,59.7c0.3-0.3,0.5-0.6,0.6-1v-2.6h-2.6v-2.4h5.3v9.2h-2.6v-0.5c-0.3,0.2-0.7,0.3-1,0.4
	c-0.4,0.1-0.7,0.1-1.1,0.1h-1.6c-0.6,0-1.2-0.1-1.8-0.4c-1.1-0.5-2-1.3-2.4-2.4c-0.2-0.6-0.4-1.2-0.4-1.8v-6.6
	c0-0.6,0.1-1.2,0.4-1.8c0.5-1.1,1.3-2,2.4-2.4c0.6-0.2,1.2-0.4,1.8-0.4h2c1.1,0,2.2,0.4,3,1.2c0.4,0.4,0.7,0.8,0.9,1.3
	c0.2,0.5,0.4,1.1,0.4,1.6h-2.8c-0.1-0.4-0.3-0.7-0.5-1c-0.3-0.3-0.6-0.4-1-0.4h-2c-0.3,0-0.5,0.1-0.7,0.2c-0.2,0.1-0.4,0.2-0.6,0.4
	c-0.2,0.2-0.3,0.4-0.4,0.6c-0.1,0.2-0.1,0.5-0.1,0.8v6.2c0,0.3,0,0.5,0.1,0.8c0.1,0.2,0.2,0.4,0.4,0.6c0.2,0.2,0.3,0.3,0.6,0.4
	c0.2,0.1,0.5,0.2,0.7,0.2h2C1404.4,60.1,1404.7,60,1405,59.7z"/>
<path class="st5" d="M1416.6,47.2c0.6,0,1.2,0.1,1.8,0.4c1.1,0.5,2,1.3,2.4,2.4c0.2,0.6,0.4,1.2,0.4,1.8v6.6c0,0.6-0.1,1.2-0.4,1.8
	c-0.5,1.1-1.3,2-2.4,2.4c-0.6,0.2-1.2,0.4-1.8,0.4h-1.8c-0.6,0-1.2-0.1-1.8-0.4c-1.1-0.5-2-1.3-2.4-2.4c-0.2-0.6-0.4-1.2-0.4-1.8
	v-6.6c0-0.6,0.1-1.2,0.4-1.8c0.5-1.1,1.3-2,2.4-2.4c0.6-0.2,1.2-0.4,1.8-0.4H1416.6z M1418.3,51.9c0-0.5-0.2-1-0.5-1.4
	c-0.3-0.4-0.8-0.6-1.3-0.6h-1.8c-0.5,0-1,0.2-1.3,0.6c-0.3,0.4-0.5,0.9-0.5,1.4v6.2c0,0.5,0.2,1,0.5,1.4c0.3,0.4,0.8,0.6,1.3,0.6
	h1.8c0.5,0,1-0.2,1.3-0.6c0.3-0.4,0.5-0.9,0.5-1.4V51.9z"/>
<path class="st1" d="M1167,20c-18.5,13.2,16.7,40.8,28.4,38.5c5.8-1.1,5.8-3.8,5.8-3.8S1191,2.8,1167,20z M1170,29.6
	c0.1-4.5,4.8-5.3,6.4-5.3c6,0.1,10.4,11.6,13.6,23.7C1183.3,46.4,1169.9,37.1,1170,29.6z"/>
<path class="st6" d="M1195,30.9c-2.5,10.5-5,19.7-5,19.7s-0.2,3.3,5.6,4.5c5.7-1.2,5.8-3.9,5.8-3.9
	C1199.8,44.3,1197.6,37.5,1195,30.9z"/>
<path class="st1" d="M1191.8,54.7c0,0,0,2.7,5.8,3.8c11.7,2.3,46.9-25.3,28.4-38.5C1202,2.8,1191.8,54.7,1191.8,54.7z M1202.5,48.4
	c3.3-12.1,8.1-24,14-24.1c1.7,0,6.3,0.8,6.4,5.3C1223.1,37.1,1209.3,46.7,1202.5,48.4L1202.5,48.4z"/>
<path class="st7" d="M1150.3,52.1c-1.1,0-1.9,0.9-1.9,1.9v13.3c0,1.1,0.9,1.9,1.9,1.9h92.2c1.1,0,1.9-0.9,1.9-1.9V54.1
	c0-1.1-0.9-1.9-1.9-1.9H1150.3z"/>
<rect x="1140.4" y="66.9" class="st8" width="112.1" height="3.2"/>
<g>
	<defs>
		<rect id="SVGID_1_" x="360" y="0" width="1200" height="110"/>
	</defs>
	<clipPath id="SVGID_2_">
		<use xlink:href="#SVGID_1_"  style="overflow:visible;"/>
	</clipPath>
	<path class="st9" d="M1241.4,69.3v68.8c0,1.9-1.5,3.4-3.4,3.4l0,0h-83c-1.9,0-3.4-1.5-3.4-3.4c0,0,0,0,0,0l0,0V69.3H1241.4z"/>
	<polygon class="st10" points="1206.9,141.5 1185.9,141.5 1185.9,68.9 1185.9,51.6 1206.9,51.6 1206.9,68.9 1206.9,71.4 	"/>
</g>
<g>
	<path class="st11" d="M792.1,53.9c0,3.1,2.3,6.1,4.9,7.3l-0.8,1.2c-2.1-1-3.9-3-4.8-5.5c-0.8,2.6-2.7,4.9-4.7,6l-0.9-1.2
		c2.5-1.2,4.8-4.6,4.8-7.7v-2.5h-4.2v-1.2h10v1.2h-4.3V53.9z M800.4,48.3v17.9h-1.5V48.3H800.4z"/>
	<path class="st11" d="M820.4,55.9v1.2h-16.2v-1.2h12.1c0.5-2.3,0.5-3.9,0.5-5.3v-0.1h-10.6v-1.2h12v1.3c0,1.4,0,3.1-0.5,5.3H820.4z
		 M806.2,59.6h12.1v6.3h-12.1V59.6z M807.7,64.7h9.3v-3.9h-9.3V64.7z"/>
	<path class="st11" d="M830.2,49.8h1.4v12.1h-8.3V49.8h1.4v4.8h5.4V49.8z M830.2,55.8h-5.4v4.9h5.4V55.8z M839.3,56.7h-3v9.5h-1.5
		V48.3h1.5v7.1h3V56.7z"/>
	<path class="st11" d="M857.2,62.7v1.2H841v-1.2h7.4v-3.5h-5.3v-5.4h10.7v-2.9H843v-1.2h12.1V55h-10.7V58h11.1v1.2h-5.8v3.5H857.2z"
		/>
	<path class="st11" d="M870,45.9c-1.5,0.9-2.3,2-2.4,3.6c0.1,0,0.2,0,0.3,0c0.9,0,1.8,0.6,1.8,1.7c0,1.1-0.8,1.8-1.8,1.8
		c-1.4,0-2.1-1.1-2.1-3c0-2.5,1.2-4.3,3.4-5.5L870,45.9z M875.7,45.9c-1.5,0.9-2.3,2-2.4,3.6c0.1,0,0.2,0,0.3,0c1,0,1.8,0.6,1.8,1.7
		c0,1.1-0.8,1.8-1.8,1.8c-1.4,0-2.1-1.1-2.1-3c0-2.5,1.2-4.3,3.4-5.5L875.7,45.9z"/>
	<path class="st11" d="M893.5,55.5c-4.9,0.8-10.3,0.9-14.5,0.9l-0.3-2.2c1.4,0,3,0,4.7,0v-4.4h2.7v4.4c2.4-0.1,5-0.3,7.3-0.6
		L893.5,55.5z M888.7,52.1c0.4-2.2,0.5-3.9,0.5-5.3h-9.2v-2.2h11.8V46c0,1.5,0,3.6-0.6,6.3L888.7,52.1z M897.6,62.4
		c0,2.7-3,4.3-8,4.3c-4.9,0-7.9-1.6-7.9-4.3c0-2.7,3-4.3,7.9-4.3C894.6,58,897.6,59.6,897.6,62.4z M894.9,62.4
		c0-1.5-1.9-2.2-5.2-2.2c-3.3,0-5.2,0.8-5.2,2.2s1.9,2.2,5.2,2.2C893,64.6,894.9,63.8,894.9,62.4z M900.6,49.4v2.2h-3.1v6.2h-2.7
		V43.2h2.7v6.2H900.6z"/>
	<path class="st11" d="M924.1,61.5v2.2h-21.2v-2.2h7.9v-8.3h2.7v8.3H924.1z M919.1,47.6h-14v-2.2h16.7v2.3c0,2.9,0,6.2-0.9,11
		l-2.7-0.3c0.9-4.6,0.9-7.9,0.9-10.7V47.6z"/>
	<path class="st11" d="M948.1,55.1v2.2H939v4.4h-2.7v-4.4h-9.5v-2.2H948.1z M932,64.1h13.7v2.2h-16.3v-6.8h2.7V64.1z M945.3,52.8
		h-15.8v-8.5h15.8V52.8z M942.7,46.4h-10.6v4.2h10.6V46.4z"/>
	<path class="st11" d="M950.8,59.6c4.2,0,10.1,0,15.1-0.8l0.2,1.9c-5.2,1-10.8,1-14.9,1L950.8,59.6z M964.7,50.5
		c0,3.3-2.7,5.6-6.4,5.6c-3.7,0-6.4-2.3-6.4-5.6s2.7-5.6,6.4-5.6C961.9,44.9,964.7,47.2,964.7,50.5z M954.5,50.5
		c0,2,1.6,3.4,3.7,3.4c2.2,0,3.8-1.3,3.8-3.4c0-2.1-1.6-3.4-3.8-3.4C956.1,47.2,954.5,48.5,954.5,50.5z M970,43.2v23.5h-2.7V43.2
		H970z"/>
	<path class="st11" d="M975.2,51.5c1.5-1,2.3-2,2.3-3.7c-0.1,0-0.2,0-0.3,0c-0.9,0-1.7-0.6-1.7-1.7c0-1.1,0.7-1.8,1.7-1.8
		c1.4,0,2.1,1.1,2.1,3c0,2.5-1.2,4.3-3.5,5.5L975.2,51.5z M980.9,51.5c1.5-1,2.3-2,2.3-3.7c-0.1,0-0.2,0-0.3,0
		c-0.9,0-1.8-0.6-1.8-1.7c0-1.1,0.7-1.8,1.8-1.8c1.4,0,2.1,1.1,2.1,3c0,2.5-1.2,4.3-3.5,5.5L980.9,51.5z"/>
	<path class="st11" d="M1004.1,56.7v1.1h-16.2v-1.1H1004.1z M991.3,64.9h11.3v1.1h-12.8V62h10.7v-1.6h-10.8v-1.1h12.2v3.7h-10.7
		V64.9z M1000.5,49.9h-10.6v-1.1h12.1v3.6h-10.6v1.6h10.9v1.1H990v-3.7h10.6V49.9z"/>
	<path class="st11" d="M1022.7,56.2c-3,0.6-5.7,0.8-8.4,0.8h-1.4v-7.8h1.5v6.5c2.6,0,5.2-0.2,8.1-0.8L1022.7,56.2z M1014.7,59.4
		h11.2v6.5h-11.2V59.4z M1016.1,64.7h8.4v-4.1h-8.4V64.7z M1028.6,53.7h-2.7v4.7h-1.5V48.3h1.5v4.2h2.7V53.7z"/>
	<path class="st11" d="M1045.1,48.3v17.9h-1.5v-6.9h-5.1V58h5.1v-3.6h-4.8c-1,3.3-3.4,6.2-7.5,8.3l-0.8-1.2
		c4.8-2.4,7.2-5.9,7.5-10.2h-6.7v-1.2h8.2c0,1-0.1,2-0.3,3h4.5v-5H1045.1z"/>
	<path class="st11" d="M1065.1,62.7v1.2h-16.2v-1.2h7.4v-3.9h-5.4v-9.1h1.4v3.3h9.4v-3.3h1.4v9.1h-5.4v3.9H1065.1z M1052.3,57.5h9.4
		v-3.4h-9.4V57.5z"/>
	<path class="st11" d="M1072.5,53.5c0,2.8,1.5,5.9,3.8,7.3l-0.8,1.1c-1.7-1-3-3-3.6-5.2c-0.6,2.4-2,4.5-3.8,5.6l-0.9-1.1
		c2.4-1.4,4-4.6,4-7.7V50h1.4V53.5z M1077.4,48.7h1.4v16.6h-1.4V56h-3.1v-1.2h3.1V48.7z M1082.4,48.3v17.9h-1.4V48.3H1082.4z"/>
	<path class="st11" d="M1101.9,62.6v1.2h-16.3v-1.2h4.1v-4.9c-1.5-0.8-2.4-2.1-2.4-3.7c0-2.8,2.7-4.6,6.5-4.6c3.8,0,6.5,1.8,6.5,4.6
		c0,1.6-0.9,2.9-2.4,3.7v4.9H1101.9z M1093.7,57.4c2.9,0,5.1-1.4,5.1-3.4c0-2-2.1-3.4-5.1-3.4s-5.1,1.4-5.1,3.4
		C1088.7,56.1,1090.8,57.4,1093.7,57.4z M1091.2,62.6h5.2v-4.3c-0.8,0.2-1.7,0.3-2.6,0.3c-0.9,0-1.8-0.1-2.6-0.3V62.6z"/>
	<path class="st11" d="M1104.4,63.7c0-0.8,0.6-1.3,1.2-1.3c0.7,0,1.2,0.5,1.2,1.3c0,0.8-0.6,1.3-1.2,1.3
		C1105,65,1104.4,64.5,1104.4,63.7z"/>
</g>
</svg>
