<svg xmlns="http://www.w3.org/2000/svg" viewBox="0 0 957.63 454.8"><defs><style>.cls-1,.cls-16,.cls-2{fill:#fff;}.cls-1,.cls-16{stroke:#cdcecd;}.cls-1,.cls-16,.cls-18,.cls-22,.cls-23{stroke-miterlimit:10;}.cls-1{stroke-width:1.49px;}.cls-3{fill:#2a485f;}.cls-4{fill:#9bd7f5;}.cls-5{fill:#62bfeb;}.cls-6{fill:#e62a52;}.cls-7{fill:#eef0f4;}.cls-8{fill:#3bb69e;}.cls-9{fill:#6bc2b8;}.cls-10{fill:#cdcecd;}.cls-11{fill:#e94f32;}.cls-12{fill:#fdd54f;}.cls-13{fill:#b6babf;}.cls-14{fill:#eb6d4f;}.cls-15{fill:#efefef;}.cls-16,.cls-22{stroke-width:0.5px;}.cls-17{fill:#323333;}.cls-18,.cls-22,.cls-23{fill:none;}.cls-18{stroke:#a0a0a0;stroke-width:0.86px;}.cls-19{fill:#e0e0e0;}.cls-20{fill:#878787;}.cls-21{fill:#f5ae16;}.cls-22{stroke:#323333;stroke-dasharray:3.22;}.cls-23{stroke:#9f9fa0;stroke-width:0.42px;stroke-dasharray:1.66;}.cls-24{fill:#231815;}</style></defs><title>reviewtoc_brand_info</title><g id="레이어_2" data-name="레이어 2"><g id="격리_모드" data-name="격리 모드"><path class="cls-1" d="M12.33,101.61H12V96.48a5.28,5.28,0,0,0-10.55,0v5.13H1a.27.27,0,0,0-.27.26v1.43a.28.28,0,0,0,.27.27H1.4v84.79h0l4.71,12.27a.6.6,0,0,0,1.13,0l1.42-3.69h0L12,188.36h0V103.57h.38a.27.27,0,0,0,.27-.27v-1.43A.27.27,0,0,0,12.33,101.61Z"/><path class="cls-1" d="M125.93,202.24l-4.7-12a18.82,18.82,0,0,0-7.1-29.61V90.38a5,5,0,0,0-5-5H23.44a5,5,0,0,0-5,5V205.56a5,5,0,0,0,5,5h85.72a5,5,0,0,0,5-5V195.43c.22-.09.42-.19.63-.29l10.1,7.9A.69.69,0,0,0,125.93,202.24Z"/><path class="cls-2" d="M1.4,188.36v-3.93H12v3.93L7.24,200.63a.6.6,0,0,1-1.13,0Z"/><path class="cls-3" d="M4.69,196.94l1.42,3.69a.6.6,0,0,0,1.13,0l1.42-3.69Z"/><path class="cls-4" d="M6.17,102.84h1A2.17,2.17,0,0,1,9.38,105v83.37a0,0,0,0,1,0,0H4a0,0,0,0,1,0,0V105A2.17,2.17,0,0,1,6.17,102.84Z" transform="translate(13.38 291.21) rotate(180)"/><path class="cls-5" d="M1.4,188.36A2.68,2.68,0,0,0,4,185.68V102.84H1.4Z"/><path class="cls-5" d="M12,188.36a2.68,2.68,0,0,1-2.6-2.68V102.84H12Z"/><path class="cls-6" d="M1.4,102.84V96.48a5.28,5.28,0,0,1,10.55,0v6.36Z"/><rect class="cls-2" x="0.74" y="101.61" width="11.86" height="1.97" rx="0.27" ry="0.27"/><path class="cls-2" d="M114.13,90.38V205.56a5,5,0,0,1-5,5H23.44a5,5,0,0,1-5-5V90.38a5,5,0,0,1,5-5h85.72A5,5,0,0,1,114.13,90.38Z"/><rect class="cls-6" x="31.46" y="100.03" width="27.6" height="27.6"/><rect class="cls-7" x="65.12" y="101.15" width="35.95" height="2.2"/><rect class="cls-7" x="65.12" y="109.57" width="35.95" height="2.2"/><rect class="cls-7" x="65.12" y="117.98" width="35.95" height="2.2"/><rect class="cls-7" x="65.12" y="126.4" width="35.95" height="2.2"/><rect class="cls-7" x="31.53" y="134.81" width="69.54" height="2.2"/><rect class="cls-7" x="31.53" y="143.23" width="69.54" height="2.2"/><rect class="cls-7" x="31.53" y="151.64" width="69.54" height="2.2"/><rect class="cls-7" x="31.53" y="160.05" width="69.54" height="2.2"/><rect class="cls-7" x="31.53" y="168.47" width="69.54" height="2.2"/><rect class="cls-7" x="31.53" y="176.88" width="69.54" height="2.2"/><rect class="cls-7" x="31.53" y="185.3" width="69.54" height="2.2"/><rect class="cls-7" x="31.53" y="193.71" width="69.54" height="2.2"/><path class="cls-8" d="M111.19,173.51a18.85,18.85,0,1,1-18.85-18.84A18.84,18.84,0,0,1,111.19,173.51Z"/><path class="cls-8" d="M92.54,184.32l-18.16,14.2a.69.69,0,0,1-1.07-.8l7.1-18.15Z"/><path class="cls-9" d="M88.05,178a18.85,18.85,0,1,0,18.85-18.84A18.84,18.84,0,0,0,88.05,178Z"/><path class="cls-9" d="M106.7,188.84,124.86,203a.69.69,0,0,0,1.07-.8l-7.1-18.14Z"/><path class="cls-2" d="M113.54,178a3.15,3.15,0,1,0,3.15-3.14A3.15,3.15,0,0,0,113.54,178Z"/><path class="cls-2" d="M103.75,178a3.15,3.15,0,1,0,3.14-3.14A3.15,3.15,0,0,0,103.75,178Z"/><path class="cls-2" d="M94,178a3.15,3.15,0,1,0,3.15-3.14A3.15,3.15,0,0,0,94,178Z"/><rect class="cls-10" x="833.68" y="74.92" width="93.69" height="129.82" rx="5.46" ry="5.46"/><rect class="cls-2" x="839.14" y="89.86" width="82.78" height="109.06"/><path class="cls-11" d="M900.16,127.14a19.85,19.85,0,1,1-19.84-19.84A19.83,19.83,0,0,1,900.16,127.14Z"/><path class="cls-12" d="M893.73,112.5l-28.05,28a19.85,19.85,0,0,1,28.05-28Z"/><path class="cls-4" d="M900.16,127.14a19.73,19.73,0,0,1-5.51,13.71l-28-28a19.84,19.84,0,0,1,33.56,14.33Z"/><path class="cls-3" d="M880,126.21V107.32a19.84,19.84,0,0,0-19.5,18.89Z"/><rect class="cls-7" x="847.24" y="158.25" width="66.58" height="2.76"/><rect class="cls-7" x="847.24" y="165.85" width="66.58" height="2.76"/><rect class="cls-7" x="847.24" y="173.44" width="66.58" height="2.76"/><rect class="cls-7" x="847.24" y="181.04" width="37.08" height="2.76"/><path class="cls-13" d="M875.27,97.51H858.19a4.07,4.07,0,0,1-4.07-4.07V87a4.07,4.07,0,0,1,4.07-4.07h44.46A4.08,4.08,0,0,1,906.72,87v6.46a4.08,4.08,0,0,1-4.07,4.07H885.51A5.85,5.85,0,0,1,875.27,97.51ZM858.19,85a2,2,0,0,0-2,2v6.46a2,2,0,0,0,2,2h17.73a1,1,0,0,1,1,.65,3.8,3.8,0,0,0,7,0,1,1,0,0,1,1-.64h17.78a2,2,0,0,0,2-2V87a2,2,0,0,0-2-2Z"/><path class="cls-3" d="M904.51,83.93a3.19,3.19,0,0,1-3.18,3.18H859.51a3.19,3.19,0,1,1,0-6.37h41.82A3.19,3.19,0,0,1,904.51,83.93Z"/><path class="cls-9" d="M957.63,177.49a33.1,33.1,0,1,1-33.1-33.1A33.09,33.09,0,0,1,957.63,177.49Z"/><path class="cls-2" d="M953.76,177.49a29.23,29.23,0,1,1-29.23-29.23A29.23,29.23,0,0,1,953.76,177.49Z"/><path class="cls-3" d="M935,188.5l-9.59-9a.86.86,0,0,1,1.17-1.26l9.6,9A.86.86,0,0,1,935,188.5Z"/><path class="cls-3" d="M922.38,176.78l-3.49-3.3a.85.85,0,0,1,0-1.21.87.87,0,0,1,1.22,0l3.49,3.3a.86.86,0,1,1-1.18,1.25Z"/><path class="cls-3" d="M924.53,185.21a.85.85,0,0,1-.86-.85v-3.73a.86.86,0,0,1,1.72,0v3.73A.86.86,0,0,1,924.53,185.21Z"/><path class="cls-3" d="M924.53,176.26a.86.86,0,0,1-.86-.86V159.64a.86.86,0,0,1,1.72,0V175.4A.87.87,0,0,1,924.53,176.26Z"/><path class="cls-4" d="M926.77,153.45a2.24,2.24,0,1,1-2.24-2.25A2.24,2.24,0,0,1,926.77,153.45Z"/><path class="cls-8" d="M926.77,201.54a2.24,2.24,0,1,1-2.24-2.25A2.24,2.24,0,0,1,926.77,201.54Z"/><path class="cls-14" d="M948.57,179.73a2.24,2.24,0,1,1,2.25-2.24A2.24,2.24,0,0,1,948.57,179.73Z"/><path class="cls-12" d="M900.49,179.73a2.24,2.24,0,1,1,2.25-2.24A2.24,2.24,0,0,1,900.49,179.73Z"/><path class="cls-14" d="M910,191.77a.86.86,0,0,1,0-1.21l12.32-12.32a.86.86,0,0,1,1.22,1.21l-12.32,12.32A.86.86,0,0,1,910,191.77Z"/><path class="cls-14" d="M925.28,176.54a.86.86,0,0,1,0-1.22l5.33-5.33a.86.86,0,0,1,1.21,1.22l-5.33,5.33A.86.86,0,0,1,925.28,176.54Z"/><path class="cls-14" d="M924.53,180.42a2.93,2.93,0,1,1,2.93-2.93A2.93,2.93,0,0,1,924.53,180.42Zm0-4.14a1.21,1.21,0,0,0,0,2.42A1.21,1.21,0,0,0,924.53,176.28Z"/><polygon class="cls-15" points="622.96 47.92 591.75 1.94 593.26 47.84 622.96 47.92"/><polygon class="cls-15" points="344.71 220.75 306.71 190.18 344.71 190.18 344.71 220.75"/><path class="cls-16" d="M652.31,230.8a10.06,10.06,0,0,1-10,10H335.33a10,10,0,1,1,0-20.06h307A10,10,0,0,1,652.31,230.8Z"/><path class="cls-7" d="M652.27,230.39a10,10,0,0,0-10-9.62H335.33a10,10,0,0,0-10,9.62Z"/><path class="cls-17" d="M632.9,59.12V220.75H344.71V59.12A11.26,11.26,0,0,1,356,47.84H621.62A11.26,11.26,0,0,1,632.9,59.12Z"/><rect class="cls-2" x="355.99" y="59.12" width="265.63" height="150.35"/><rect class="cls-17" x="354.64" y="58.36" width="268.32" height="151.87"/><path class="cls-17" d="M531.35,213.69l-4,5.89a11,11,0,0,1-9.25,4.91H459.55a11,11,0,0,1-9.25-4.91l-4-5.89Z"/><path class="cls-18" d="M588.13.43H311.84a5.13,5.13,0,0,0-5.13,5.13V190.18H593.26V5.56A5.13,5.13,0,0,0,588.13.43Z"/><rect class="cls-2" x="306.71" y="23.58" width="286.55" height="166.61"/><rect class="cls-19" x="321.26" y="84.23" width="77.74" height="69.79"/><rect class="cls-19" x="321.26" y="160.68" width="77.74" height="5.87"/><rect class="cls-19" x="321.26" y="170.89" width="58.34" height="5.87"/><rect class="cls-19" x="411.12" y="160.68" width="77.74" height="5.87"/><rect class="cls-19" x="411.12" y="170.89" width="58.34" height="5.87"/><rect class="cls-19" x="500.97" y="160.68" width="77.74" height="5.87"/><rect class="cls-19" x="500.97" y="170.89" width="58.34" height="5.87"/><rect class="cls-19" x="411.11" y="84.23" width="77.74" height="69.79"/><rect class="cls-19" x="500.97" y="84.23" width="77.74" height="69.79"/><path class="cls-20" d="M588.13.43H311.84a5.13,5.13,0,0,0-5.13,5.13v18H593.26v-18A5.13,5.13,0,0,0,588.13.43Z"/><rect class="cls-6" x="321.26" y="39.78" width="257.46" height="33.48"/><path class="cls-2" d="M411.1,62.6l-2.67-4.76h-1.91V62.6h-1.85V50.82h3.85c2.44,0,4.26.86,4.26,3.41a3.27,3.27,0,0,1-2.46,3.37l2.88,5Zm-4.58-6.24h1.78c1.71,0,2.64-.71,2.64-2.13s-.93-1.92-2.64-1.92h-1.78Z"/><path class="cls-2" d="M415.15,50.82h7v1.55H417v3.28h4.32v1.57H417V61h5.29V62.6h-7.14Z"/><path class="cls-2" d="M423.16,50.82h2l1.75,6.1c.4,1.34.65,2.49,1.07,3.85H428c.4-1.36.69-2.51,1.07-3.85l1.74-6.1h1.89L429.05,62.6h-2.19Z"/><path class="cls-2" d="M434.25,50.82h1.86V62.6h-1.86Z"/><path class="cls-2" d="M439.19,50.82h7v1.55h-5.11v3.28h4.32v1.57h-4.32V61h5.28V62.6h-7.14Z"/><path class="cls-2" d="M447.59,50.82h1.92L450.62,57l.62,3.78h.07c.25-1.27.53-2.53.8-3.78l1.52-6.13h1.63L456.8,57c.27,1.23.53,2.49.8,3.78h.08c.19-1.29.4-2.55.59-3.78l1.12-6.13h1.78L458.85,62.6h-2.29L455,56.05c-.21-.93-.38-1.81-.54-2.7h-.08c-.16.89-.35,1.77-.55,2.7l-1.55,6.55H450Z"/><path class="cls-2" d="M469.1,52.37h-3.46V50.82h8.79v1.55H471V62.6H469.1Z"/><path class="cls-2" d="M475.37,56.66c0-3.79,2.1-6.07,5.12-6.07s5.14,2.28,5.14,6.07-2.11,6.15-5.14,6.15S475.37,60.45,475.37,56.66Zm8.35,0c0-2.77-1.28-4.45-3.23-4.45s-3.22,1.68-3.22,4.45,1.27,4.53,3.22,4.53S483.72,59.43,483.72,56.66Z"/><path class="cls-2" d="M487.43,56.74c0-3.84,2.34-6.15,5.32-6.15a4.55,4.55,0,0,1,3.34,1.49l-1,1.19a3.09,3.09,0,0,0-2.3-1.06c-2,0-3.44,1.7-3.44,4.47s1.31,4.51,3.39,4.51a3.43,3.43,0,0,0,2.61-1.25l1,1.17a4.63,4.63,0,0,1-3.66,1.7C489.71,62.81,487.43,60.6,487.43,56.74Z"/><circle class="cls-2" cx="322.52" cy="12" r="3.13"/><circle class="cls-2" cx="332.87" cy="12" r="3.13"/><circle class="cls-2" cx="343.22" cy="12" r="3.13"/><rect class="cls-6" x="386.49" y="84.23" width="12.51" height="12.51"/><rect class="cls-21" x="386.49" y="98.3" width="12.51" height="12.51"/><rect class="cls-6" x="476.3" y="84.23" width="12.51" height="12.51"/><rect class="cls-21" x="476.3" y="98.3" width="12.51" height="12.51"/><rect class="cls-6" x="566.21" y="84.23" width="12.51" height="12.51"/><rect class="cls-21" x="566.21" y="98.3" width="12.51" height="12.51"/><line class="cls-22" x1="156.79" y1="164.1" x2="274.74" y2="164.1"/><polygon class="cls-17" points="275.89 164.1 270.03 159.06 270.03 169.14 275.89 164.1"/><line class="cls-22" x1="683.45" y1="164.1" x2="801.39" y2="164.1"/><polygon class="cls-17" points="802.55 164.1 796.68 159.06 796.68 169.14 802.55 164.1"/><path class="cls-17" d="M51.72,264.92v1.46H33.42v-1.46ZM37.5,274.74H50v1.42H35.7v-4.75H47.55v-1.78H35.63v-1.4H49.38v4.51H37.5ZM49.33,263.2H35.86v-6.67h1.82v1.92h9.83v-1.92h1.82Zm-1.82-3.35H37.68v1.93h9.83Z"/><path class="cls-17" d="M72.53,272.38v1.51H54.16v-1.51h8.23v-3.81H56.46v-6.25h12v-3.15h-12v-1.51H70.25v6.15h-12v3.27H70.73v1.49H64.26v3.81Z"/><path class="cls-17" d="M85,258.36c0,5.75-2.39,10.86-9.1,14.17l-1-1.44c5.43-2.66,7.93-6.51,8.27-11.24H75.8v-1.49Zm6.54-2.17v20.2H89.71V265.8H85v-1.51h4.73v-8.1Z"/><path class="cls-17" d="M438.1,285.94a67.52,67.52,0,0,0,10.59-.8l.28,2.16a63.65,63.65,0,0,1-11.57.82h-2V278.9h8.12v-4.32h-8.17v-2.17h10.84V281H438.1Zm15.2-15.64v23.36h-2.68V270.3Z"/><path class="cls-17" d="M478.88,285.91h-5.07v7.73h-2.66v-7.73h-5.64v7.73h-2.68v-7.73h-5.05v-2.14h21.1Zm-2.6-4.64H460.33v-10H463v2.86h10.63v-2.86h2.66Zm-2.66-5H463v2.88h10.63Z"/><path class="cls-17" d="M502.53,282.82V285H481.46v-2.14h9.2v-2.14h-6.49v-9.74H500v2H486.82v1.8h12.65v2H486.82v1.88h13.37v2h-6.86v2.14Zm-18.7,3.86h16.05v6.93h-2.66v-4.82H483.83Z"/><path class="cls-17" d="M878.41,266.63a86.43,86.43,0,0,1-12.6.77l-.2-1.54c1.28,0,2.77,0,4.28,0v-4h1.83v3.94c2.2-.09,4.48-.22,6.55-.49Zm-3.88-2.77a21.2,21.2,0,0,0,.52-4.94h-8.2v-1.49h10v1.09a24.56,24.56,0,0,1-.51,5.5Zm7.15,8.81c0,2.34-2.57,3.67-6.72,3.67s-6.72-1.33-6.72-3.67S870.81,269,875,269,881.68,270.37,881.68,272.67Zm-1.87,0c0-1.38-1.85-2.19-4.85-2.19s-4.85.81-4.85,2.19,1.85,2.21,4.85,2.21S879.81,274.07,879.81,272.67Zm4.55-11v1.54h-2.89v5.54h-1.84V256.15h1.84v5.54Z"/><path class="cls-17" d="M904.78,272v1.51H886.5V272h7.1V264.8h1.85V272Zm-4-12.33H888.42V258.2H902.6v2a45.34,45.34,0,0,1-.77,9.35l-1.85-.2a43,43,0,0,0,.77-9.15Z"/><path class="cls-17" d="M925.52,269.2h-8.27v7.19H915.4V269.2h-8.16v-1.51H925.5Zm-17.19-4.67c3.51-.51,7-2.84,7-5.5v-.11H909v-1.49h14.76v1.49h-6.33V259c0,2.66,3.49,5,7.05,5.5l-.72,1.47c-3.13-.54-6.13-2.23-7.35-4.62-1.24,2.39-4.21,4.08-7.35,4.62Z"/><circle class="cls-6" cx="325" cy="363.2" r="53.22"/><path class="cls-2" d="M290.88,354.53a3.38,3.38,0,0,1-2-1.85,3.53,3.53,0,0,1-2.07,2l-.39-.59a3,3,0,0,0,2.07-2.69V351h-1.83v-.62h4.38V351h-1.8v.4a2.82,2.82,0,0,0,2,2.52Zm2.52,2.63v.62h-5.48v-2.54h.76v1.92Zm-1-5.14v-2.26h.76v6h-.76v-3.14h-1.65V352Z"/><path class="cls-2" d="M294.84,358.53a1.39,1.39,0,0,0,.91-1.25h-.1a.57.57,0,0,1-.61-.59.59.59,0,0,1,.63-.58c.44,0,.7.37.7,1A2,2,0,0,1,295,359Z"/><path class="cls-2" d="M304.05,351.36h-4.6v-.61h2v-1h.75v1h1.89ZM301.78,355a1.66,1.66,0,0,1-1.86-1.58c0-.93.77-1.55,1.86-1.55s1.85.62,1.85,1.55A1.65,1.65,0,0,1,301.78,355Zm0-.59a1,1,0,1,0-1.15-1A1,1,0,0,0,301.78,354.36Zm4.61,2.8v.62h-5.47v-2.3h.75v1.68Zm-.95-5.23v-2.17h.76V356h-.76v-1.74h-1.39v-.61h1.39v-1.11h-1.39v-.62Z"/><path class="cls-2" d="M312.51,354.35a3.49,3.49,0,0,1-2.07-1.87,3.48,3.48,0,0,1-2.08,2l-.39-.59a3,3,0,0,0,2.08-2.66v-.33h-1.88v-.61h4.5v.61h-1.86v.33a2.81,2.81,0,0,0,2.06,2.5Zm-3.41.8h5.5V358h-.76v-2.21H309.1Zm5.5-5.4v5h-.76v-5Z"/><path class="cls-2" d="M318.66,350.57h3.77v5.3h-3.77Zm.74,4.7h2.29v-4.1H319.4Zm6.61-1.61h-1.36V358h-.75v-8.2h.75V353H326Z"/><path class="cls-2" d="M331.32,350h.7v7.58h-.7V353.6H329.8a5.82,5.82,0,0,1-2.57,2.66l-.43-.54a5.06,5.06,0,0,0,2.41-2.5l-2.31.22-.1-.64,2.61-.17a5.78,5.78,0,0,0,.21-1.31h-2.41v-.6h3.14A7.55,7.55,0,0,1,330,353h1.29Zm2.41-.22V358H333v-8.21Z"/><path class="cls-2" d="M336.31,355.38a18.65,18.65,0,0,0,3.55-.26l.08.61a19.92,19.92,0,0,1-3.75.26h-.63v-5.5h3.8v.62h-3.05v1.69H339v.61h-2.69Zm5.64-5.64V358h-.75v-4.51h-1.7v-.62h1.7v-3.1Z"/><path class="cls-2" d="M349.75,354v.76h2.38v1.79h-4.82v.78h5.07v.57h-5.81V356h4.82v-.7h-4.84v-.55H349V354h-3.32v-.58h7.4V354Zm-3.7-1.51c1.52-.1,2.78-.61,2.9-1.42h-2.53v-.57H349v-.78h.75v.78h2.57V351H349.8c.12.81,1.36,1.32,2.89,1.42l-.23.56a4.09,4.09,0,0,1-3.08-1.29,4.17,4.17,0,0,1-3.11,1.29Z"/><path class="cls-2" d="M358.63,354.43a3.54,3.54,0,0,1-2-2,3.68,3.68,0,0,1-2.05,2.2l-.39-.62a3.19,3.19,0,0,0,2.06-2.94v-.84H357V351a3,3,0,0,0,2,2.8Zm2.44,2.73v.62h-5.53v-2.57h.75v2Zm-.25-1.39h-.75v-6h.75Z"/><path class="cls-2" d="M311.86,364.9v.61h-3.28v1.66h-.76v-1.66h-3.41v-.61Zm-6.6-2.31c0-1,1.13-1.65,2.87-1.65s2.88.64,2.88,1.65-1.14,1.65-2.88,1.65S305.26,363.61,305.26,362.59Zm.86,5.55H311v.62h-5.67v-2.4h.75Zm-.08-5.55c0,.64.84,1,2.09,1s2.09-.4,2.09-1-.83-1-2.09-1S306,361.94,306,362.59Z"/><path class="cls-2" d="M316.75,364.42a2.14,2.14,0,0,1-1.66.71,2,2,0,1,1,0-3.9,2.16,2.16,0,0,1,1.66.69h2.1v-1.19h.76v4.87h-.76v-1.18Zm-1.66.07a1.32,1.32,0,1,0-1.4-1.32A1.32,1.32,0,0,0,315.09,364.49Zm4.55,2.87c0,1-1.05,1.58-2.75,1.58s-2.72-.58-2.72-1.58,1-1.57,2.72-1.57S319.64,366.36,319.64,367.36Zm-.74,0c0-.62-.75-1-2-1s-2,.37-2,1,.75,1,2,1S318.9,368,318.9,367.36Zm-1.8-4.83a2.1,2.1,0,0,1,.1.64,1.91,1.91,0,0,1-.11.64h1.76v-1.28Z"/><path class="cls-2" d="M325.92,365.58a3.52,3.52,0,0,1-2.07-1.87,3.4,3.4,0,0,1-2.07,2l-.4-.58a2.92,2.92,0,0,0,2.08-2.68V362h-1.88v-.61h4.51V362h-1.86v.44a2.79,2.79,0,0,0,2.06,2.51Zm2.34,2.57v.61h-5.53v-2.58h.75v2Zm-.25-1.4h-.75v-6H328Z"/><path class="cls-2" d="M337.13,364.16v.61H329.7v-.61Zm-5.78,4.1h5.07v.59h-5.81v-2h4.82v-.79h-4.84v-.58h5.58v1.93h-4.82Zm4.89-4.76h-5.55V361h5.47v.6h-4.72v1.29h4.8Z"/><path class="cls-2" d="M338.18,366.53a37.51,37.51,0,0,0,5.34-.28l.07.55a29.2,29.2,0,0,1-5.32.36Zm4.8-3.26a2.21,2.21,0,1,1-2.19-1.93A2,2,0,0,1,343,363.27Zm-3.66,0a1.48,1.48,0,1,0,1.47-1.29A1.33,1.33,0,0,0,339.32,363.27Zm5.49-2.54V369h-.75v-8.23Z"/><path class="cls-2" d="M299.57,375.74a3.47,3.47,0,0,1-2.07-1.88,3.51,3.51,0,0,1-2.09,2l-.38-.59a3,3,0,0,0,2.08-2.72V372h.76v.62a2.85,2.85,0,0,0,2.07,2.57Zm2.42,3.51v.59h-5.58v-2H301V377h-4.58v-.6h5.32v2h-4.56v.88ZM301.7,376H301v-4.25h.75Z"/><path class="cls-2" d="M306.31,373.91a4.08,4.08,0,0,0,2.2,3.56l-.45.61a4.48,4.48,0,0,1-2.12-2.6,4.54,4.54,0,0,1-2.12,2.75l-.46-.61a4.32,4.32,0,0,0,2.21-3.71v-1.47h.74Zm3.81-2.19V380h-.75v-8.23Z"/><path class="cls-2" d="M316,372.36c0,2.13-1.5,3.68-3.86,4.43l-.3-.6c1.93-.6,3.2-1.77,3.35-3.21h-3v-.62Zm-2.17,6.78h4.72v.61h-5.47v-2.63h.75Zm5.58-4.92v.63h-1.22v2.88h-.75v-6h.75v2.49Z"/><path class="cls-2" d="M329.74,378.26v.62H322.3v-.62h3.33v-2h-2.45v-3.85h5.65v3.85h-2.44v2Zm-5.84-2.59h4.2V373h-4.2Z"/><path class="cls-2" d="M332,377.17a19.79,19.79,0,0,0,3.87-.38l.08.64a19.72,19.72,0,0,1-4,.38h-.67v-5.29H332Zm5.46-5.45v8.21h-.75v-8.21Z"/><path class="cls-2" d="M340.27,377.35a18.77,18.77,0,0,0,3.56-.25l.08.61a20,20,0,0,1-3.76.26h-.63v-5.5h3.8v.62h-3.05v1.69H343v.61h-2.7Zm5.64-5.64v8.23h-.75v-4.5h-1.69v-.62h1.69v-3.11Z"/><path class="cls-2" d="M352.64,376a23,23,0,0,1-4,.26H348v-2.34h3v-1.08h-3v-.61h3.73v2.27h-3v1.15a22.27,22.27,0,0,0,3.82-.26Zm1.72,2.42c0,1-1.06,1.5-2.77,1.5s-2.75-.54-2.75-1.5,1.05-1.48,2.75-1.48S354.36,377.49,354.36,378.43Zm-.75,0c0-.55-.75-.88-2-.88s-2,.33-2,.88.75.9,2,.9S353.61,379,353.61,378.43Zm.7-1.65h-.75v-5.06h.75Z"/><circle class="cls-17" cx="427.5" cy="407.62" r="40.98"/><path class="cls-2" d="M406,402.2a21,21,0,0,0,3.69-.27l.07.61a21,21,0,0,1-3.87.27h-.64v-5.49h3.82v.61H406v1.7h2.89v.6H406Zm6.56-1.7h-1.35v4.28h-.75v-8.2h.75v3.29h1.35Z"/><path class="cls-2" d="M422.11,396.59V401h-.76v-1.84h-1.66a2,2,0,0,1-2.1,1.61,1.91,1.91,0,1,1,0-3.8,2,2,0,0,1,2.09,1.58h1.67v-2ZM419,398.86a1.41,1.41,0,1,0-1.4,1.28A1.3,1.3,0,0,0,419,398.86Zm2.37,2.53h.75v3.29h-5.25v-3.29h.74v1h3.76Zm0,1.62H417.6v1.07h3.76Z"/><path class="cls-2" d="M426.16,399.1a3.72,3.72,0,0,0,1.77,3.26l-.43.57a3.82,3.82,0,0,1-1.69-2.27,4.08,4.08,0,0,1-1.66,2.45l-.44-.56a4.09,4.09,0,0,0,1.74-3.45v-.39h-1.52v-.62h1.52v-1.22h.72v1.22h1.51v.62h-1.52Zm2.22-2.33h.71v7.59h-.71v-3.92h-1.26v-.62h1.26Zm2.37-.19v8.2H430v-8.2Z"/><path class="cls-2" d="M435.28,402.14a13.21,13.21,0,0,0,2.78-.24l.06.62a13.5,13.5,0,0,1-3,.25h-.54v-5.2h3.06v.62h-2.32Zm5.94-5.56v8.21h-.72v-4.3h-1.16v3.89h-.71v-7.62h.71v3.11h1.16v-3.29Z"/><path class="cls-2" d="M443.88,397.27v2.17h2.38v-2.17H447v5.54h-3.86v-5.54Zm0,4.93h2.38V400h-2.38Zm5.51-5.62v8.22h-.75v-8.22Z"/><path class="cls-2" d="M403.88,411.31v.6h-7.43v-.6h3.34v-1h-2.34v-2.52h.75v1.91H403v.61h-2.5v1Zm-2.08,3.75h1.33v.61H397.2v-.61h1.32v-1.73h-1.25v-.6h5.78v.6H401.8Zm-2.54,0h1.8v-1.73h-1.8Z"/><path class="cls-2" d="M412.29,411.89v.6h-7.43v-.6Zm-6.6-2.4c0-1,1.13-1.64,2.89-1.64s2.88.61,2.88,1.64-1.12,1.63-2.88,1.63S405.69,410.51,405.69,409.49Zm.88,5.49h4.9v.61h-5.65v-2.38h.75Zm-.11-5.49c0,.65.83,1,2.12,1s2.11-.37,2.11-1-.82-1-2.11-1S406.46,408.84,406.46,409.49Z"/><path class="cls-2" d="M422.78,412.81h-3.36v3h-.75v-3h-3.31v-.62h7.41Zm-.68-1.51a4.31,4.31,0,0,1-3-1.92,4.2,4.2,0,0,1-3,1.92l-.3-.6c1.49-.22,2.94-1.21,2.94-2.38v-.46h.79v.46c0,1.14,1.46,2.16,3,2.38Z"/><path class="cls-2" d="M428.25,410a2.16,2.16,0,1,1-2.14-1.94A2,2,0,0,1,428.25,410Zm-3.55,0a1.41,1.41,0,1,0,1.41-1.31A1.3,1.3,0,0,0,424.7,410Zm5.81,2.9v2.89h-.75v-2.28H425v-.61Zm0-5.33v4.88h-.75v-4.88Z"/><path class="cls-2" d="M439.65,411v.6h-7.46V411h5.52a9.72,9.72,0,0,0,.24-2.42h-4.81V408h5.55v.61a10.57,10.57,0,0,1-.22,2.42Zm-6.54,1.72h5.6v2.92h-5.6Zm.73,2.31H438v-1.71h-4.13Z"/><path class="cls-2" d="M445.08,409.88a4,4,0,0,0,1.75,3.5l-.46.55a4,4,0,0,1-1.65-2.4,4.23,4.23,0,0,1-1.69,2.6l-.46-.56a4.28,4.28,0,0,0,1.79-3.69v-.74H442.8v-.61h3.74v.61h-1.46Zm2.2-2.13H448v7.6h-.71v-4.22h-1.36v-.62h1.36Zm2.37-.19v8.21h-.73v-8.21Z"/><path class="cls-2" d="M458.5,411.39V412h-7.39v-.62h3v-1.57h.75v1.57Zm-.86,2.88c0,.93-1.11,1.5-2.86,1.5s-2.86-.57-2.86-1.5,1.11-1.51,2.86-1.51S457.64,413.32,457.64,414.27Zm-.8-5.68H452V408h5.6v.69a7.57,7.57,0,0,1-.23,2.17l-.73-.08a7.43,7.43,0,0,0,.22-2.09Zm.05,5.68c0-.59-.82-.94-2.11-.94s-2.11.35-2.11.94.82.91,2.11.91S456.89,414.83,456.89,414.27Z"/><circle class="cls-17" cx="626.7" cy="346.06" r="48.82"/><path class="cls-2" d="M605,339.32a35.62,35.62,0,0,1-5.12.31l-.08-.62c.52,0,1.13,0,1.74,0v-1.62h.74V339c.9,0,1.82-.09,2.67-.2Zm-1.57-1.13a8.86,8.86,0,0,0,.21-2H600.3v-.61h4.07V336a9.81,9.81,0,0,1-.21,2.23Zm2.9,3.58c0,1-1.05,1.49-2.73,1.49s-2.73-.54-2.73-1.49,1-1.47,2.73-1.47S606.33,340.84,606.33,341.77Zm-.76,0c0-.56-.75-.89-2-.89s-2,.33-2,.89.75.9,2,.9S605.57,342.34,605.57,341.77Zm1.85-4.46v.62h-1.17v2.26h-.76v-5.13h.76v2.25Z"/><path class="cls-2" d="M615.71,341.51v.62h-7.42v-.62h2.88v-2.94h.75v2.94Zm-1.64-5h-5v-.62h5.76v.82a18.07,18.07,0,0,1-.32,3.8l-.75-.09a17.51,17.51,0,0,0,.31-3.71Z"/><path class="cls-2" d="M624.14,340.36h-3.36v2.92H620v-2.92h-3.32v-.61h7.42Zm-7-1.9c1.43-.21,2.85-1.15,2.85-2.23v0h-2.59v-.61h6v.61h-2.58v0c0,1.08,1.42,2,2.87,2.23l-.29.6a4.15,4.15,0,0,1-3-1.88,4.15,4.15,0,0,1-3,1.88Z"/><path class="cls-2" d="M629.24,339h-3.7v-3.58h.74v1.17h2.22v-1.16h.74v.78h1.9v-1.16h.75v4.28h-.75v-1h-1.9Zm-.74-1.82h-2.22v1.22h2.22Zm3.7,5.37v.59h-5.59v-2h4.53v-.79h-4.55v-.59h5.3v1.95h-4.54v.87Zm-3-5.75v.9h1.9v-.9Z"/><path class="cls-2" d="M640.07,339.86a3.38,3.38,0,0,1-2-1.86,3.53,3.53,0,0,1-2.07,2l-.4-.59a3,3,0,0,0,2.07-2.69v-.41h-1.83v-.61h4.39v.61h-1.81v.4a2.83,2.83,0,0,0,2,2.52Zm2.53,2.62v.62h-5.48v-2.54h.76v1.92Zm-1-5.14v-2.26h.76v6h-.76V338H640v-.61Z"/><path class="cls-2" d="M648.86,339a17.53,17.53,0,0,1-3.81.29h-.65v-3.64H648v.6h-2.86v2.42a17.29,17.29,0,0,0,3.62-.28Zm-3.61,1.19h5.15v3h-5.15Zm.73,2.4h3.68v-1.81H646Zm5.64-4.86H650.4v2h-.75v-4.66h.75v2h1.22Z"/><path class="cls-2" d="M605.39,347h3.12v5.05h-3.12Zm.7,4.46h1.72V347.6h-1.72Zm6-5.41v8.2h-.71v-4.34h-1.11v3.94h-.71v-7.62h.71v3.07h1.11v-3.25Z"/><path class="cls-2" d="M614.78,351.5a19.65,19.65,0,0,0,3.87-.38l.09.64a19.76,19.76,0,0,1-4,.39H614v-5.3h.75Zm5.47-5.44v8.2h-.75v-8.2Z"/><path class="cls-2" d="M624.78,348.46a4.08,4.08,0,0,0,2.15,3.43l-.45.58a4.46,4.46,0,0,1-2.07-2.58,4.68,4.68,0,0,1-2.09,2.76l-.44-.6a4.27,4.27,0,0,0,2.15-3.59v-.95h-1.86v-.61h4.48v.61h-1.87Zm3.93-2.4v8.22H628v-4.63h-1.78V349H628v-3Z"/><path class="cls-2" d="M634.83,348.37a4,4,0,0,0,1.74,3.5l-.45.55a3.92,3.92,0,0,1-1.65-2.4,4.23,4.23,0,0,1-1.69,2.6l-.46-.56a4.29,4.29,0,0,0,1.78-3.69v-.74h-1.55V347h3.74v.61h-1.46Zm2.19-2.13h.72v7.6H637v-4.22h-1.35V349H637Zm2.38-.19v8.21h-.73v-8.21Z"/><path class="cls-2" d="M648.25,349.88v.62h-7.39v-.62h3v-1.57h.75v1.57Zm-.86,2.88c0,.93-1.12,1.5-2.87,1.5s-2.85-.57-2.85-1.5,1.11-1.51,2.85-1.51S647.39,351.81,647.39,352.76Zm-.81-5.68h-4.85v-.6h5.59v.69a7.9,7.9,0,0,1-.22,2.17l-.74-.08a7.43,7.43,0,0,0,.22-2.09Zm.06,5.68c0-.59-.82-.94-2.12-.94s-2.1.35-2.1.94.82.91,2.1.91S646.64,353.33,646.64,352.76Z"/><circle class="cls-6" cx="535.02" cy="409" r="45.8"/><path class="cls-2" d="M507.18,399v.59h-7.43V399Zm-5.78,4h5.08v.58h-5.81v-1.93h4.82v-.73h-4.85v-.57h5.59v1.84H501.4Zm4.81-4.69h-5.47V395.6h.74v.78h4v-.78h.74Zm-.74-1.36h-4v.79h4Z"/><path class="cls-2" d="M515.63,402v.61h-7.46V402h3.34v-1.55h-2.4V398H514v-1.29h-4.89v-.61h5.62v2.5h-4.86v1.33h5v.6h-2.63V402Z"/><path class="cls-2" d="M520.71,396.34a6,6,0,0,1-3.7,5.76l-.41-.58A5.35,5.35,0,0,0,520,397h-3v-.61Zm2.65-.87v8.2h-.75v-4.31h-1.92v-.61h1.92v-3.28Z"/><path class="cls-2" d="M532.46,398.88v.61H525v-.61Zm-5.78,4.1h5.07v.59H526v-2h4.81v-.79h-4.84v-.58h5.58v1.93h-4.82Zm4.9-4.76H526v-2.49h5.47v.6h-4.72v1.29h4.81Z"/><path class="cls-2" d="M533.51,401.25a37.72,37.72,0,0,0,5.35-.28l.06.56a30,30,0,0,1-5.32.35Zm4.81-3.26a2.22,2.22,0,1,1-2.2-1.93A2,2,0,0,1,538.32,398Zm-3.67,0a1.48,1.48,0,0,0,2.93,0,1.48,1.48,0,0,0-2.93,0Zm5.5-2.53v8.23h-.75v-8.23Z"/><path class="cls-2" d="M548.38,400a3.25,3.25,0,0,1-2-1.68,3.27,3.27,0,0,1-2.07,1.83l-.37-.58a2.67,2.67,0,0,0,2.05-2.42V397h-1.82v-.6H546v-1h.75v1h1.81v.6h-1.81v.13a2.55,2.55,0,0,0,2,2.27Zm-3.23.7h5.15v2.86h-5.15Zm.73,2.25h3.68V401.3h-3.68Zm5.64-4.79H550.3v2.16h-.75v-4.86h.75v2.07h1.22Z"/><path class="cls-2" d="M559.12,395.46v8.23h-.75V400.5h-2a1.91,1.91,0,0,1-1.77,1.32c-1.2,0-2-1.12-2-2.87s.85-2.86,2-2.86a1.84,1.84,0,0,1,1.71,1.21h2.11v-1.84ZM555.89,399c0-1.32-.56-2.18-1.34-2.18s-1.33.86-1.33,2.18.55,2.2,1.33,2.2S555.89,400.29,555.89,399Zm2.48.94v-2h-1.89a4.88,4.88,0,0,1,.11,1,4.62,4.62,0,0,1-.09.94Z"/><path class="cls-2" d="M566.15,399.49v.82h1.1v1.85h-4.82V403h5.07v.59h-5.8v-2h4.81v-.73h-4.83v-.57h1.11v-.82h-2v-.6h7.42v.6ZM561.6,397c0-.93,1.08-1.43,2.89-1.43s2.88.5,2.88,1.43-1.07,1.42-2.88,1.42S561.6,397.9,561.6,397Zm.77,0c0,.55.78.86,2.12.86s2.11-.31,2.11-.86-.77-.87-2.11-.87S562.37,396.43,562.37,397Zm3,2.51h-1.86v.82h1.86Z"/><path class="cls-2" d="M516.66,409.9v.61h-7.45v-.61h5.53a11.55,11.55,0,0,0,.21-2.45h-4.79v-.61h5.54v.56a12,12,0,0,1-.21,2.5ZM510,411.74h5.75v2.94H515v-2.33h-5Z"/><path class="cls-2" d="M518.66,412a12.55,12.55,0,0,0,2.78-.25l.06.63a13.53,13.53,0,0,1-3,.24h-.54v-5.19H521v.62h-2.32Zm6-5.57v8.22h-.73v-4.31h-1.16v3.89H522v-7.61h.7v3.11h1.16v-3.3Z"/><path class="cls-2" d="M528.94,412.41a19.94,19.94,0,0,0,2.21-.2l0,.56a30.48,30.48,0,0,1-5.13.33l-.1-.63c.66,0,1.43,0,2.23,0v-.9a1.57,1.57,0,0,1-1.57-1.5c0-.92.8-1.52,1.94-1.52s1.94.6,1.94,1.52a1.56,1.56,0,0,1-1.56,1.5ZM531,408H526.1v-.6h2.09v-1h.75v1H531ZM528.56,411c.74,0,1.23-.37,1.23-.94s-.49-.94-1.23-.94-1.22.37-1.22.94S527.83,411,528.56,411Zm5.1-.42h-1.28v4.1h-.75v-8.22h.75v3.49h1.28Z"/><path class="cls-2" d="M541.92,410.26v.57h-7.44v-.57ZM536.13,414h5.12v.54h-5.86v-1.82h4.87V412h-4.89v-.54H541v1.75h-4.87Zm4.1-6.8h-4.82v-.53H541v1.71h-4.8v.71h5v.54h-5.69v-1.76h4.8Z"/><path class="cls-2" d="M550.41,411.17a18.79,18.79,0,0,1-2.35.27v3h-.75v-2.91c-.82,0-1.59,0-2.27,0l-.1-.63a38.41,38.41,0,0,0,5.41-.29Zm-4.86-2.65c0-1,.87-1.69,2.1-1.69s2.09.69,2.09,1.69-.88,1.69-2.09,1.69S545.55,409.52,545.55,408.52Zm.72,0c0,.64.57,1.07,1.38,1.07s1.36-.43,1.36-1.07-.57-1.07-1.36-1.07S546.27,407.88,546.27,408.52Zm5.42-2.07v8.22h-.75v-8.22Z"/><path class="cls-2" d="M558.25,408.06h-4.84v-.61h2v-1h.75v1h2Zm-2.43,3.5c-1.16,0-2-.6-2-1.53s.79-1.52,2-1.52,2,.61,2,1.52S557,411.56,555.82,411.56Zm0-.58c.75,0,1.26-.37,1.26-1s-.51-.93-1.26-.93-1.24.37-1.24.93S555.07,411,555.82,411Zm-.43,2.88h4.73v.61h-5.48v-2.35h.75Zm5.58-4.71v.64h-1.22v2.82H559v-6.16h.75v2.7Z"/><path class="cls-2" d="M502.05,421.79a1.94,1.94,0,1,1,2.15-1.94A2,2,0,0,1,502.05,421.79Zm0-.63a1.31,1.31,0,1,0-1.41-1.31A1.31,1.31,0,0,0,502.05,421.16Zm4.17,2.94c0,1-1,1.54-2.7,1.54s-2.71-.57-2.71-1.54,1-1.54,2.71-1.54S506.22,423.12,506.22,424.1Zm-.75,0c0-.6-.74-.94-2-.94s-2,.34-2,.94.74.94,2,.94S505.47,424.68,505.47,424.1Zm.66-4.83v1.14h1.2V421h-1.2v1.27h-.75v-4.86h.75v1.22h1.2v.61Z"/><path class="cls-2" d="M512.86,421.53a3.33,3.33,0,0,1-2.1-1.78,3.37,3.37,0,0,1-2.11,2l-.36-.6a2.76,2.76,0,0,0,2.08-2.51v-.1h-1.88v-.6H513v.6h-1.86v.1a2.63,2.63,0,0,0,2.07,2.35Zm2.33,3.43v.59h-5.57V423.5h4.56v-.82H509.6v-.59h5.32v2h-4.56v.9Zm-.28-3.26h-.75v-4.26h.75Z"/><path class="cls-2" d="M516.66,423.23a36.38,36.38,0,0,0,5.35-.29l.06.56a29.15,29.15,0,0,1-5.32.36Zm4.81-3.26a2.22,2.22,0,1,1-2.2-1.93A2,2,0,0,1,521.47,420Zm-3.67,0a1.48,1.48,0,0,0,2.93,0,1.48,1.48,0,0,0-2.93,0Zm5.5-2.54v8.23h-.75v-8.23Z"/><path class="cls-2" d="M530.73,418a4.55,4.55,0,0,1-3.19,4.46l-.37-.56a4.48,4.48,0,0,0,2.37-1.85l-2.27.24-.12-.62,2.65-.17a3.62,3.62,0,0,0,.18-.88h-2.44V418Zm-2.11,4.68H534v2.88h-5.39Zm.73,2.27h3.92v-1.66h-3.92Zm4.66-7.5v4.84h-.72v-2.14h-1.08v2.08h-.72v-4.62h.72v1.93h1.08v-2.09Z"/><path class="cls-2" d="M538.65,422.89c.3,0,.6-.05.87-.09l0,.55a24.4,24.4,0,0,1-4.06.27l-.08-.62h.84v-3.91h-.68v-.6h3.75v.6h-.68Zm-1.71.08,1,0v-3.86h-1Zm3.27-5.33h.71v7.58h-.71v-4h-1.12v-.65h1.12Zm2.31-.2v8.21h-.72v-8.21Z"/><path class="cls-2" d="M546.26,422.06a2,2,0,1,1,2.15-2A2,2,0,0,1,546.26,422.06Zm0-.65a1.38,1.38,0,1,0-1.4-1.38A1.35,1.35,0,0,0,546.26,421.41Zm4.66,3.44v.61h-5.53v-2.63h.75v2Zm-.25-1.41h-.75v-6h.75Z"/><path class="cls-2" d="M556.81,419.75a4,4,0,0,0,1.75,3.5l-.46.55a4,4,0,0,1-1.64-2.4,4.3,4.3,0,0,1-1.7,2.6l-.45-.56a4.3,4.3,0,0,0,1.78-3.69V419h-1.56v-.61h3.75V419h-1.47Zm2.2-2.13h.72v7.6H559V421h-1.35v-.61H559Zm2.37-.2v8.22h-.72v-8.22Z"/><path class="cls-2" d="M570.24,421.26v.61h-7.39v-.61h3v-1.57h.75v1.57Zm-.86,2.88c0,.93-1.12,1.5-2.87,1.5s-2.86-.57-2.86-1.5,1.11-1.52,2.86-1.52S569.38,423.18,569.38,424.14Zm-.81-5.68h-4.85v-.6h5.59v.69a7.57,7.57,0,0,1-.23,2.17l-.73-.08a7.43,7.43,0,0,0,.22-2.09Zm.06,5.68c0-.59-.83-.94-2.12-.94s-2.11.35-2.11.94.83.91,2.11.91S568.63,424.7,568.63,424.14Z"/><line class="cls-23" x1="375.05" y1="342.76" x2="469.24" y2="315.59"/><line class="cls-23" x1="441.18" y1="368.98" x2="469.24" y2="315.59"/><line class="cls-23" x1="514.21" y1="366.64" x2="469.24" y2="315.59"/><line class="cls-23" x1="577.88" y1="336.13" x2="469.24" y2="315.59"/><path class="cls-2" d="M38.92,105h5.47c3.62,0,6.24,1.15,6.24,4.34a3.94,3.94,0,0,1-2.52,3.82v.12a4.05,4.05,0,0,1,3.48,4.2c0,3.5-2.86,5.18-6.77,5.18h-5.9Zm5.16,7.37c2.69,0,3.81-1,3.81-2.67,0-1.85-1.24-2.54-3.74-2.54H41.7v5.21Zm.43,8.11c2.76,0,4.34-1,4.34-3.15,0-2-1.53-2.85-4.34-2.85H41.7v6Z"/><path class="cls-24" d="M160,118.22a4.51,4.51,0,0,0,2.12,3.8l-.35.44a4.9,4.9,0,0,1-2-2.88,5,5,0,0,1-2,3.07l-.36-.42a4.89,4.89,0,0,0,2.1-4v-.61h-1.9v-.47h1.9v-1.47H160v1.47h1.88v.47H160Zm2.84-2.65h.54v8.57h-.54v-4.57h-1.65v-.47h1.65Zm2.42-.25v9.33h-.55v-9.33Z"/><path class="cls-24" d="M172.42,116.85h-5.37v-.46h2.41v-1.16H170v1.16h2.41Zm-2.69,3.9c-1.23,0-2.11-.65-2.11-1.65s.88-1.65,2.11-1.65,2.11.65,2.11,1.65S171,120.75,169.73,120.75Zm0-.44c.92,0,1.59-.52,1.59-1.21s-.67-1.21-1.59-1.21-1.58.51-1.58,1.21S168.81,120.31,169.73,120.31Zm-1,1.23h5.95v3h-5.95Zm.55,2.5h4.87v-2h-4.87Zm5.4-8.72V121h-.55v-2.29H172.3v-.47h1.79v-2.9Z"/><path class="cls-24" d="M182.26,120a21.4,21.4,0,0,1-4.38.33h-.69v-4.2h4.09v.47h-3.54v3.25h.14a20,20,0,0,0,4.31-.33Zm-3.5,3.92h5.6v.47H178.2v-3h.56Zm6.59-5.73v.48h-1.46v3.38h-.55v-6.77h.55v2.91Z"/><path class="cls-24" d="M191.66,115.67h.51l-3.47,10.11h-.49Z"/><path class="cls-24" d="M192.76,120.09c0-2.45,1.35-4,3.29-4a2.65,2.65,0,0,1,2,.92l-.36.41a2.15,2.15,0,0,0-1.66-.76c-1.61,0-2.63,1.3-2.63,3.37s1,3.42,2.6,3.42a2.46,2.46,0,0,0,1.9-.92l.36.39a2.85,2.85,0,0,1-2.29,1.1C194.1,124.06,192.76,122.53,192.76,120.09Z"/><path class="cls-24" d="M199.82,116.27h2c1.73,0,2.79.56,2.79,2.15s-1,2.27-2.75,2.27h-1.4v3.23h-.63Zm1.9,3.89c1.52,0,2.24-.51,2.24-1.74s-.76-1.63-2.28-1.63h-1.23v3.37Z"/><path class="cls-24" d="M209.13,121.35h-3l-.87,2.57h-.63l2.68-7.65H208l2.68,7.65H210Zm-.17-.51-.46-1.38c-.32-.89-.57-1.7-.84-2.63h0c-.26.93-.52,1.74-.83,2.63l-.47,1.38Z"/><path class="cls-24" d="M222.08,120.05v.47h-8.43v-.47h3.93V118.8h-2.85v-3H221v.48h-5.72v2.08h5.79v.48h-2.95v1.25ZM221,123c0,1.07-1.19,1.65-3.17,1.65s-3.17-.58-3.17-1.65,1.2-1.66,3.17-1.66S221,121.92,221,123Zm-.55,0c0-.76-1-1.21-2.62-1.21s-2.61.45-2.61,1.21,1,1.2,2.61,1.2S220.48,123.73,220.48,123Z"/><path class="cls-24" d="M226.42,118.05a4.91,4.91,0,0,0,2.59,4l-.34.45a5.51,5.51,0,0,1-2.51-3.13,5.68,5.68,0,0,1-2.51,3.28l-.35-.45a5.17,5.17,0,0,0,2.57-4.15v-1.86h.55Zm4.45-2.72v9.34h-.56v-9.34Z"/><path class="cls-24" d="M243.75,120.18v.48h-3.88v2.06h-.56v-2.06h-4v-.48Zm-7.45-2.75c0-1.13,1.26-1.82,3.2-1.82s3.23.69,3.23,1.82-1.26,1.84-3.23,1.84S236.3,118.57,236.3,117.43Zm.67,6.51h5.85v.48h-6.39v-2.67H237Zm-.09-6.51c0,.82,1.07,1.37,2.62,1.37s2.65-.55,2.65-1.37-1.07-1.36-2.65-1.36S236.88,116.61,236.88,117.43Z"/><path class="cls-24" d="M249.39,119.42a2.41,2.41,0,0,1-1.91.85,2.19,2.19,0,1,1,0-4.36,2.37,2.37,0,0,1,1.91.84H252v-1.43h.55v5.56H252v-1.46Zm-1.91.35a1.7,1.7,0,1,0-1.82-1.7A1.72,1.72,0,0,0,247.48,119.77Zm5.12,3.1c0,1.11-1.17,1.75-3.07,1.75s-3-.64-3-1.75,1.15-1.75,3-1.75S252.6,121.76,252.6,122.87Zm-.55,0c0-.79-1-1.3-2.52-1.3s-2.5.51-2.5,1.3,1,1.3,2.5,1.3S252.05,123.67,252.05,122.87Zm-2.37-5.66a2.44,2.44,0,0,1,.17.86,2.41,2.41,0,0,1-.17.87H252v-1.73Z"/><path class="cls-24" d="M263.07,122.88v.47h-8.46v-.47Zm-.91-4.39c0,1.51-1.42,2.5-3.34,2.5s-3.32-1-3.32-2.5,1.4-2.5,3.32-2.5S262.16,117,262.16,118.49Zm-6.15,0c0,1.2,1.22,2.05,2.81,2.05s2.83-.85,2.83-2.05-1.22-2-2.83-2S256,117.31,256,118.49Z"/><path class="cls-24" d="M272.75,123v.49h-8.48V123h3.94v-2h-2.82v-2.73h5.7v-1.72h-5.73v-.46h6.27v2.64h-5.7v1.8h5.92V121h-3.08v2Z"/><path class="cls-24" d="M165.81,132.1v.46h-8.43v-.46Zm-6.8,4.56h6v.46h-6.54v-2h5.69v-1h-5.71v-.44h6.26v1.91H159Zm5.69-5.51h-6.17v-3.06h.55v1h5.06v-1h.56Zm-.56-1.57h-5.06v1.1h5.06Z"/><path class="cls-24" d="M175.51,135.55V136H167v-.49H171v-2h-2.82v-2.73h5.7v-1.72h-5.74v-.46h6.28v2.64h-5.7v1.8h5.92v.47h-3.08v2Z"/><path class="cls-24" d="M181.34,129a6.91,6.91,0,0,1-4.24,6.42l-.32-.45a6.44,6.44,0,0,0,4-5.5h-3.64V129Zm2.95-1v9.31h-.55v-5h-2.4v-.48h2.4v-3.83Z"/><path class="cls-24" d="M193.82,133a3.83,3.83,0,0,1-2.35-2.09,4,4,0,0,1-2.44,2.28l-.28-.44a3.31,3.31,0,0,0,2.43-2.9v-.29H189v-.46h2.21v-1.26h.56v1.26h2.18v.46h-2.19v.29a3.13,3.13,0,0,0,2.36,2.7Zm-3.68.92h5.75v3.16h-5.75Zm.55,2.69h4.64V134.4h-4.64Zm6.65-5.77h-1.45v2.61h-.56v-5.55h.56v2.47h1.45Z"/><path class="cls-24" d="M206,127.93v9.32h-.55v-3.68h-2.61a2.12,2.12,0,0,1-2,1.52c-1.33,0-2.27-1.25-2.27-3.2s.94-3.2,2.27-3.2a2.09,2.09,0,0,1,1.94,1.43h2.65v-2.19Zm-3.4,4c0-1.59-.71-2.71-1.74-2.71s-1.74,1.12-1.74,2.71.71,2.72,1.74,2.72S202.55,133.48,202.55,131.89Zm2.85,1.21v-2.51h-2.48a5.2,5.2,0,0,1,.16,1.3,5.09,5.09,0,0,1-.14,1.21Z"/><path class="cls-24" d="M214,132.47v1.07h1.37v1.92h-5.69v1.2h6v.46H209.1V135h5.69v-1h-5.7v-.45h1.32v-1.07H208V132h8.41v.47Zm-5-2.79c0-1.05,1.2-1.63,3.21-1.63s3.24.58,3.24,1.63-1.21,1.63-3.24,1.63S209,130.74,209,129.68Zm.57,0c0,.74,1,1.19,2.64,1.19s2.67-.45,2.67-1.19-1-1.19-2.67-1.19S209.58,128.94,209.58,129.68Zm3.82,2.79H211v1.07h2.45Z"/><path class="cls-24" d="M228.47,131.94v.48H220v-.48h6.46a11.57,11.57,0,0,0,.3-2.92v-.15h-5.67v-.46h6.2V129a13.24,13.24,0,0,1-.26,2.92Zm-7.55,2h6.49v3.32h-.56v-2.85h-5.93Z"/><path class="cls-24" d="M230.62,134.35a14,14,0,0,0,3.48-.3l.07.49a15.27,15.27,0,0,1-3.54.29h-.58v-5.74h3.48v.48H230.6v4.78Zm6.92-6.42v9.31H237v-5h-1.6v4.5h-.54v-8.58h.54v3.6H237v-3.83Z"/><path class="cls-24" d="M242.46,134.79c.94,0,1.88-.12,2.76-.25l0,.43a37.29,37.29,0,0,1-5.93.36l-.11-.48c.8,0,1.72,0,2.69,0v-1.17c-1.13-.09-1.86-.72-1.86-1.69s.85-1.71,2.14-1.71,2.15.66,2.15,1.71-.74,1.6-1.88,1.69Zm2.53-5.2h-5.61v-.47h2.53v-1.2h.55v1.2H245Zm-2.8,3.62c1,0,1.63-.52,1.63-1.26s-.66-1.26-1.63-1.26-1.63.52-1.63,1.26S241.22,133.21,242.19,133.21Zm5.82-.73h-1.62v4.76h-.56v-9.31h.56V132H248Z"/><path class="cls-24" d="M254.51,128.15H255v8.6h-.53v-4.61h-1.44c-.06,1.82-.82,3-2,3s-2-1.23-2-3.16.78-3.16,2-3.16,1.9,1.13,2,2.9h1.44Zm-2,3.78c0-1.55-.57-2.65-1.44-2.65s-1.45,1.1-1.45,2.65.59,2.66,1.45,2.66S252.54,133.5,252.54,131.93Zm4.33-4v9.33h-.54v-9.33Z"/><path class="cls-24" d="M158.26,146.84a9.11,9.11,0,0,0,1.91-.22l.07.47a9.44,9.44,0,0,1-2.14.22h-.38v-5.77h2.33V142h-1.79Zm2.89,0a9.11,9.11,0,0,0,2.29-.24l.07.47a10.12,10.12,0,0,1-2.48.24h-.42v-5.77h2.44V142h-1.9Zm4.95-2.07h-1.49v5.09h-.56v-9.34h.56v3.78h1.49Z"/><path class="cls-24" d="M175.5,145.77v.47H167v-.47Zm-1.67-4.42h-5.7v-.46h6.25V143H168.7v1.27h5.89v.46h-6.43V142.6h5.67Zm-5.09,7.8h5.84v.47h-6.39V147.1h.55Z"/><path class="cls-24" d="M187.46,144.84v.46H179v-.46Zm-6.06-3.56h-1.55v-.45h6.78v.45h-1.54v2.14h1.52v.45h-6.75v-.45h1.54Zm-.74,8h6v.45h-6.55v-2h5.7v-1h-5.72v-.44h6.26v1.87h-5.69Zm3.87-8h-2.59v2.14h2.59Z"/><path class="cls-24" d="M193.34,145.59a17,17,0,0,1-3.6.33h-.57v-2.58h2.91v-1.57h-3v-.46h3.49v2.47H189.7v1.67h0a15.78,15.78,0,0,0,3.53-.32Zm.42,1.19c0,1.35,1.86,2.34,3.28,2.59l-.23.44a4.71,4.71,0,0,1-3.33-2.14,4.71,4.71,0,0,1-3.33,2.14l-.23-.44c1.41-.25,3.28-1.24,3.28-2.59v-.29h.56Zm.64-.68h-.53v-5.4h.53v2.38H196v-2.55h.53v6.4H196v-3.37H194.4Z"/><path class="cls-24" d="M206.78,145.34v.47h-8.43v-.47h3.94v-1.27h-3.11v-.46h1.54v-2.3h-1.55v-.46H206v.46h-1.54v2.3h1.52v.46h-3.08v1.27Zm-7.36,1.5h6.32v2.87h-6.32Zm.54,2.4h5.24v-2H200Zm1.3-5.63h2.6v-2.3h-2.6Z"/><path class="cls-24" d="M216.32,145.39a35.66,35.66,0,0,1-5.91.36l-.08-.45c.78,0,1.71,0,2.66,0v-.71c-1.13-.06-1.85-.5-1.85-1.2s.83-1.24,2.12-1.24,2.11.46,2.11,1.24-.7,1.14-1.82,1.2v.69c.91-.05,1.86-.13,2.73-.25Zm-.35-3.64h-5.4v-.43H213v-.89h.56v.89H216Zm-3.82,7.54h5.7v.43h-6.24v-1.87h5.33v-.91h-5.36v-.43h5.89v1.75h-5.32Zm1.11-5.11c1,0,1.6-.34,1.6-.82s-.64-.84-1.6-.84-1.59.32-1.59.84S212.31,144.18,213.26,144.18ZM219,143v.47h-1.48V146h-.55v-5.51h.55V143Z"/><path class="cls-24" d="M225.09,145.56a4,4,0,0,1-2.32-2.29,4.15,4.15,0,0,1-2.42,2.56l-.29-.45a3.6,3.6,0,0,0,2.41-3.27v-1H223v1a3.47,3.47,0,0,0,2.39,3Zm2.56,2.54c0,1.1-1.17,1.72-3.06,1.72s-3.05-.62-3.05-1.72,1.15-1.72,3.05-1.72S227.65,147,227.65,148.1Zm-.55,0c0-.77-1-1.27-2.51-1.27s-2.5.5-2.5,1.27,1,1.27,2.5,1.27S227.1,148.88,227.1,148.1Zm0-4.95h-2.23v-.48h2.23v-2.15h.56v5.56h-.56Z"/><path class="cls-24" d="M232.8,147.39c.94,0,1.88-.12,2.76-.25l0,.43a37.29,37.29,0,0,1-5.93.36l-.11-.48c.8,0,1.72,0,2.69,0v-1.17c-1.13-.09-1.86-.72-1.86-1.69s.85-1.71,2.14-1.71,2.15.66,2.15,1.71-.74,1.6-1.88,1.69Zm2.53-5.2h-5.61v-.47h2.53v-1.2h.55v1.2h2.53Zm-2.8,3.62c1,0,1.63-.52,1.63-1.26s-.66-1.26-1.63-1.26-1.63.52-1.63,1.26S231.56,145.81,232.53,145.81Zm5.82-.73h-1.62v4.76h-.56v-9.31h.56v4.07h1.62Z"/><path class="cls-24" d="M692.47,119.64v.46H684v-.46Zm-6.07-3.56h-1.54v-.45h6.78v.45h-1.55v2.14h1.53v.45h-6.76v-.45h1.54Zm-.74,8h6v.45h-6.54v-2h5.69v-1H685.1v-.44h6.25V123h-5.69Zm3.88-8h-2.6v2.14h2.6Z"/><path class="cls-24" d="M698.35,120.39a17.11,17.11,0,0,1-3.6.33h-.58v-2.58h2.92v-1.57h-3v-.46h3.48v2.47H694.7v1.67h0a15.64,15.64,0,0,0,3.52-.32Zm.42,1.19c0,1.35,1.85,2.34,3.27,2.59l-.23.44a4.71,4.71,0,0,1-3.33-2.14,4.69,4.69,0,0,1-3.33,2.14l-.23-.44c1.41-.25,3.28-1.24,3.28-2.59v-.29h.57Zm.64-.68h-.54v-5.4h.54v2.38H701v-2.55h.54v6.4H701v-3.37h-1.56Z"/><path class="cls-24" d="M711.79,120.14v.47h-8.43v-.47h3.93v-1.27h-3.1v-.46h1.53v-2.3h-1.54v-.46H711v.46h-1.55v2.3h1.53v.46h-3.09v1.27Zm-7.36,1.5h6.32v2.87h-6.32ZM705,124h5.24v-2H705Zm1.3-5.63h2.6v-2.3h-2.6Z"/><path class="cls-24" d="M721.32,120.19a35.6,35.6,0,0,1-5.91.36l-.07-.45c.77,0,1.7,0,2.65,0v-.71c-1.13-.06-1.84-.5-1.84-1.2s.82-1.24,2.12-1.24,2.11.46,2.11,1.24-.71,1.14-1.83,1.2v.69c.91,0,1.86-.13,2.73-.25Zm-.35-3.64h-5.4v-.43H718v-.89h.56v.89H721Zm-3.82,7.54h5.7v.43h-6.24v-1.87h5.33v-.91h-5.35v-.43h5.89v1.75h-5.33Zm1.12-5.11c1,0,1.59-.34,1.59-.82s-.64-.84-1.59-.84-1.6.32-1.6.84S717.31,119,718.27,119Zm5.69-1.15v.47h-1.48v2.54h-.56v-5.51h.56v2.5Z"/><path class="cls-24" d="M730.09,120.36a4.05,4.05,0,0,1-2.32-2.29,4.13,4.13,0,0,1-2.42,2.56l-.29-.45a3.6,3.6,0,0,0,2.41-3.27v-1H728v1a3.47,3.47,0,0,0,2.39,3Zm2.56,2.54c0,1.1-1.16,1.72-3,1.72s-3.06-.62-3.06-1.72,1.16-1.72,3.06-1.72S732.65,121.8,732.65,122.9Zm-.55,0c0-.77-1-1.27-2.5-1.27s-2.5.5-2.5,1.27,1,1.27,2.5,1.27S732.1,123.68,732.1,122.9Zm-.05-5h-2.22v-.48h2.22v-2.15h.56v5.56h-.56Z"/><path class="cls-24" d="M737.81,122.19c.93,0,1.88-.12,2.75-.25l0,.43a37.22,37.22,0,0,1-5.93.36l-.11-.48c.8,0,1.72,0,2.69,0V121c-1.12-.09-1.86-.72-1.86-1.69s.85-1.71,2.14-1.71,2.16.66,2.16,1.71-.75,1.6-1.88,1.69Zm2.53-5.2h-5.62v-.47h2.53v-1.2h.56v1.2h2.53Zm-2.81,3.62c1,0,1.63-.52,1.63-1.26s-.66-1.26-1.63-1.26-1.62.52-1.62,1.26S736.56,120.61,737.53,120.61Zm5.82-.73h-1.62v4.76h-.55v-9.31h.55v4.07h1.62Z"/><path class="cls-24" d="M749.85,115.55h.54v8.6h-.54v-4.61h-1.44c-.06,1.82-.82,2.95-2,2.95s-2-1.23-2-3.16.77-3.16,2-3.16,1.9,1.13,2,2.9h1.44Zm-2,3.78c0-1.55-.58-2.65-1.45-2.65s-1.45,1.1-1.45,2.65.59,2.66,1.45,2.66S747.89,120.9,747.89,119.33Zm4.32-4v9.33h-.53v-9.33Z"/><path class="cls-24" d="M684.92,134.24a9.25,9.25,0,0,0,1.91-.22l.06.47a9.39,9.39,0,0,1-2.14.22h-.38v-5.77h2.33v.47h-1.78Zm2.88,0a9.11,9.11,0,0,0,2.29-.24l.08.47a10.25,10.25,0,0,1-2.49.24h-.42v-5.77h2.44v.47h-1.9Zm5-2.07h-1.49v5.08h-.56v-9.33h.56v3.78h1.49Z"/><path class="cls-24" d="M702.16,133.17v.47H693.7v-.47Zm-1.67-4.42h-5.7v-.46H701v2.14h-5.67v1.27h5.88v.46h-6.43V130h5.68Zm-5.09,7.8h5.83V137h-6.39V134.5h.56Z"/><path class="cls-24" d="M711.63,132.66a39.44,39.44,0,0,1-5.87.36l-.08-.49c.64,0,1.36,0,2.13,0v-2h.55v2c1.1,0,2.22-.11,3.23-.25ZM710,131.5a10.12,10.12,0,0,0,.26-2.48h-4v-.47h4.52V129a10.89,10.89,0,0,1-.26,2.57Zm2.95,4.09c0,1-1.13,1.63-3,1.63s-3-.58-3-1.63,1.13-1.64,3-1.64S712.92,134.54,712.92,135.59Zm-.56,0c0-.74-1-1.19-2.45-1.19s-2.46.45-2.46,1.19,1,1.17,2.46,1.17S712.36,136.32,712.36,135.59Zm1.94-5v.48h-1.46v2.72h-.56v-5.9h.56v2.7Z"/><path class="cls-24" d="M723.79,135.35v.48h-8.43v-.48h3.45v-3.41h.55v3.41Zm-1.69-5.93h-5.83V129h6.38v.94a22.12,22.12,0,0,1-.32,4.22l-.57-.09a19.66,19.66,0,0,0,.34-4.13Z"/><path class="cls-24" d="M733.47,135.62v.47H725v-.47h2.34v-1.85a1.52,1.52,0,0,1-1.11-1.41c0-1.09,1.13-1.72,3-1.72s3,.63,3,1.72a1.52,1.52,0,0,1-1.11,1.41v1.85Zm-.52-5.71h-7.48v-.48H729V128.1h.56v1.33H733Zm-3.72,3.71c1.47,0,2.42-.49,2.42-1.26s-.95-1.27-2.42-1.27-2.43.5-2.43,1.27S727.76,133.62,729.23,133.62Zm-1.31,2h2.62V134a6.5,6.5,0,0,1-1.31.12,6.36,6.36,0,0,1-1.31-.12Z"/><path class="cls-24" d="M737.27,134.58c1.09,0,2.22-.1,3.23-.23l0,.42a44.31,44.31,0,0,1-5.89.34l-.1-.49c.66,0,1.4,0,2.17,0v-2.93h.54Zm1.65-1.5a22.28,22.28,0,0,0,.29-3.61H735.1V129h4.66v.35a23.64,23.64,0,0,1-.28,3.78Zm4.43-.66h-1.64v4.83h-.55v-9.33h.55v4h1.64Z"/><path class="cls-24" d="M692.5,144.54V145h-8.45v-.48h6.46a11.57,11.57,0,0,0,.3-2.92v-.15h-5.67V141h6.2v.62a13.24,13.24,0,0,1-.26,2.92Zm-7.55,2h6.49v3.32h-.56v-2.85H685Z"/><path class="cls-24" d="M694.65,147a13.52,13.52,0,0,0,3.48-.3l.07.49a15.22,15.22,0,0,1-3.54.29h-.58v-5.74h3.48v.48h-2.93V147Zm6.92-6.42v9.31H701v-5h-1.6v4.5h-.54v-8.58h.54v3.6H701v-3.83Z"/><path class="cls-24" d="M706.49,147.39c.94,0,1.88-.12,2.76-.25l0,.43a37.22,37.22,0,0,1-5.93.36l-.11-.48c.8,0,1.72,0,2.69,0v-1.17c-1.12-.09-1.86-.72-1.86-1.69s.85-1.71,2.14-1.71,2.15.66,2.15,1.71-.74,1.6-1.88,1.69Zm2.54-5.2h-5.62v-.47h2.53v-1.2h.55v1.2H709Zm-2.81,3.62c1,0,1.63-.52,1.63-1.26s-.66-1.26-1.63-1.26-1.62.52-1.62,1.26S705.25,145.81,706.22,145.81Zm5.82-.73h-1.62v4.76h-.56v-9.31h.56v4.07H712Z"/></g></g></svg>